<svg width="13" height="8" viewBox="0 0 13 8" fill="none" xmlns="http://www.w3.org/2000/svg">
<path d="M6.26172 7.43066C6.60352 7.43066 6.89062 7.30078 7.15723 7.02734L12.2158 1.85254C12.4209 1.64746 12.5234 1.40137 12.5234 1.10059C12.5234 0.492188 12.0381 0 11.4365 0C11.1426 0 10.8623 0.123047 10.6367 0.348633L6.26855 4.86035L1.89355 0.348633C1.66797 0.123047 1.3877 0 1.08691 0C0.485352 0 0 0.492188 0 1.10059C0 1.39453 0.102539 1.64062 0.307617 1.85254L5.36621 7.02734C5.64648 7.30762 5.92676 7.43066 6.26172 7.43066Z" fill="#39A56A"/>
</svg>
