<svg width="19" height="20" viewBox="0 0 19 20" fill="none" xmlns="http://www.w3.org/2000/svg">
<path fill-rule="evenodd" clip-rule="evenodd" d="M13.4388 10.3297H16.625V8.74634H13.4388C13.2402 4.74579 11.5525 1.62134 9.5 1.62134C7.44747 1.62134 5.75981 4.74579 5.56121 8.74634H2.375V10.3297H5.56121C5.75981 14.3302 7.44747 17.4547 9.5 17.4547C11.5525 17.4547 13.2402 14.3302 13.4388 10.3297ZM11.8533 10.3297C11.7618 11.9874 11.3887 13.416 10.8828 14.4278C10.2506 15.6922 9.67025 15.8713 9.5 15.8713C9.32975 15.8713 8.74937 15.6922 8.11721 14.4278C7.61131 13.416 7.23817 11.9874 7.14669 10.3297H11.8533ZM7.14669 8.74634C7.23817 7.0886 7.61131 5.65997 8.11721 4.64816C8.74937 3.38384 9.32975 3.20467 9.5 3.20467C9.67025 3.20467 10.2506 3.38384 10.8828 4.64816C11.3887 5.65997 11.7618 7.0886 11.8533 8.74634H7.14669Z" fill="#579BEA"/>
<path fill-rule="evenodd" clip-rule="evenodd" d="M9.50004 15.8713C12.9978 15.8713 15.8334 13.0358 15.8334 9.538C15.8334 6.0402 12.9978 3.20467 9.50004 3.20467C6.00224 3.20467 3.16671 6.0402 3.16671 9.538C3.16671 13.0358 6.00224 15.8713 9.50004 15.8713ZM9.50004 17.4547C13.8723 17.4547 17.4167 13.9103 17.4167 9.538C17.4167 5.16575 13.8723 1.62134 9.50004 1.62134C5.12779 1.62134 1.58337 5.16575 1.58337 9.538C1.58337 13.9103 5.12779 17.4547 9.50004 17.4547Z" fill="#579BEA"/>
</svg>
