<svg width="16" height="17" viewBox="0 0 16 17" fill="none" xmlns="http://www.w3.org/2000/svg">
<path fill-rule="evenodd" clip-rule="evenodd" d="M4.20065 12.3451C4.32053 12.4649 4.49369 12.5381 4.67352 12.5381L4.66619 12.5301C4.83935 12.5301 5.01252 12.4569 5.13906 12.3371L5.13973 12.3378L10.6686 6.81272V11.2069C10.6686 11.573 10.9617 11.8725 11.3346 11.8725C11.701 11.8725 12.0007 11.573 12.0007 11.2069V5.21698C12.0007 5.06532 11.951 4.92688 11.8675 4.81602C11.8473 4.78845 11.8248 4.76207 11.7999 4.73717C11.6323 4.57013 11.4041 4.50816 11.1932 4.55143H5.3405C4.96753 4.55143 4.67448 4.84427 4.67448 5.21698C4.67448 5.58304 4.96753 5.88253 5.3405 5.88253H9.70865L4.19399 11.3933V11.4C3.93424 11.6596 3.93424 12.0855 4.20065 12.3451Z" fill="#579BEA"/>
</svg>
