<svg width="16" height="16" viewBox="0 0 16 16" fill="none" xmlns="http://www.w3.org/2000/svg">
<path fill-rule="evenodd" clip-rule="evenodd" d="M1.33301 7.99967C1.33301 4.31778 4.31778 1.33301 7.99967 1.33301C11.6816 1.33301 14.6663 4.31778 14.6663 7.99967C14.6663 11.6816 11.6816 14.6663 7.99967 14.6663C4.31778 14.6663 1.33301 11.6816 1.33301 7.99967ZM13.333 7.99967C13.333 5.05416 10.9452 2.66634 7.99967 2.66634C5.05416 2.66634 2.66634 5.05416 2.66634 7.99967C2.66634 10.9452 5.05416 13.333 7.99967 13.333C10.9452 13.333 13.333 10.9452 13.333 7.99967ZM7.99967 4.66634C8.34157 4.66634 8.62335 4.9237 8.66186 5.25526L8.66634 5.33301V7.99967C8.66634 8.36786 8.36786 8.66634 7.99967 8.66634C7.65778 8.66634 7.376 8.40898 7.33749 8.07742L7.33301 7.99967V5.33301C7.33301 4.96482 7.63148 4.66634 7.99967 4.66634ZM8.67301 10.6663C8.67301 10.2981 8.37453 9.99967 8.00634 9.99967L7.92193 10.0042C7.59037 10.0427 7.33301 10.3244 7.33301 10.6663C7.33301 11.0345 7.63148 11.333 7.99967 11.333L8.08409 11.3285C8.41565 11.29 8.67301 11.0082 8.67301 10.6663Z" fill="#7A7A7A"/>
</svg>
