<svg width="10" height="11" viewBox="0 0 10 11" fill="none" xmlns="http://www.w3.org/2000/svg">
<path fill-rule="evenodd" clip-rule="evenodd" d="M9.64285 0.266065C9.37249 -0.0131674 8.93415 -0.0131674 8.66378 0.266065L4.99947 4.05055L1.33516 0.266065L1.26994 0.206582C0.998357 -0.0115118 0.605658 0.00831318 0.356093 0.266065C0.0857296 0.545293 0.0857296 0.998017 0.356093 1.27725L4.0204 5.06173L0.356093 8.84622L0.2985 8.91358C0.0873294 9.19408 0.106527 9.59966 0.356093 9.8574C0.626455 10.1366 1.0648 10.1366 1.33516 9.8574L4.99947 6.07292L8.66378 9.8574L8.729 9.91689C9.00059 10.135 9.39329 10.1152 9.64285 9.8574C9.91322 9.57818 9.91322 9.12545 9.64285 8.84622L5.97854 5.06173L9.64285 1.27725L9.70045 1.20989C9.91162 0.929391 9.89242 0.523816 9.64285 0.266065Z" fill="black" fill-opacity="0.5"/>
</svg>
