<svg width="19" height="19" viewBox="0 0 19 19" fill="none" xmlns="http://www.w3.org/2000/svg">
<path fill-rule="evenodd" clip-rule="evenodd" d="M2.18893 0.284599C1.65654 -0.129363 0.886726 -0.0917303 0.397498 0.397498C-0.132499 0.927495 -0.132499 1.78679 0.397498 2.31679L7.58071 9.5L0.397498 16.6832L0.284599 16.8111C-0.129363 17.3435 -0.0917303 18.1133 0.397498 18.6025C0.927495 19.1325 1.78679 19.1325 2.31679 18.6025L9.5 11.4193L16.6832 18.6025L16.8111 18.7154C17.3435 19.1294 18.1133 19.0917 18.6025 18.6025C19.1325 18.0725 19.1325 17.2132 18.6025 16.6832L11.4193 9.5L18.6025 2.31679L18.7154 2.18893C19.1294 1.65654 19.0917 0.886726 18.6025 0.397498C18.0725 -0.132499 17.2132 -0.132499 16.6832 0.397498L9.5 7.58071L2.31679 0.397498L2.18893 0.284599Z" fill="#D9D9D9"/>
</svg>
