<svg width="94" height="88" viewBox="0 0 94 88" fill="none" xmlns="http://www.w3.org/2000/svg">
<g filter="url(#filter0_f_274_2817)">
<path d="M73.6635 58.3125C72.547 62.6875 47.534 68 47.534 68C47.534 68 21.907 62.2188 20.3995 58.3125C18.892 54.4063 20.3995 48 47.534 48C74.6685 48 74.78 53.9375 73.6635 58.3125Z" fill="black" fill-opacity="0.5"/>
</g>
<path d="M73.3976 33C72.2866 47 47.3975 64 47.3975 64C47.3975 64 21.8976 45.5 20.3975 33C18.8975 20.5 20.3975 0 47.3975 0C74.3975 0 74.5085 19 73.3976 33Z" fill="#B0B0B0"/>
<path d="M39.4992 35.264C38.1352 35.264 36.9546 34.934 35.9572 34.274C34.9746 33.5993 34.2192 32.668 33.6912 31.48C33.1632 30.2773 32.8992 28.884 32.8992 27.3C32.8992 25.716 33.1632 24.33 33.6912 23.142C34.2192 21.9393 34.9746 21.008 35.9572 20.348C36.9546 19.6733 38.1352 19.336 39.4992 19.336C40.8632 19.336 42.0366 19.6733 43.0192 20.348C44.0019 21.008 44.7572 21.9393 45.2852 23.142C45.8132 24.33 46.0772 25.716 46.0772 27.3C46.0772 28.884 45.8132 30.2773 45.2852 31.48C44.7572 32.668 44.0019 33.5993 43.0192 34.274C42.0366 34.934 40.8632 35.264 39.4992 35.264ZM39.4992 33.636C40.3939 33.636 41.1932 33.3867 41.8972 32.888C42.6159 32.3747 43.1732 31.6487 43.5692 30.71C43.9799 29.7567 44.1852 28.62 44.1852 27.3C44.1852 25.98 43.9799 24.8507 43.5692 23.912C43.1732 22.9733 42.6159 22.2547 41.8972 21.756C41.1932 21.2427 40.3939 20.986 39.4992 20.986C38.5899 20.986 37.7832 21.2427 37.0792 21.756C36.3752 22.2547 35.8179 22.9733 35.4072 23.912C34.9966 24.8507 34.7912 25.98 34.7912 27.3C34.7912 28.62 34.9966 29.7567 35.4072 30.71C35.8179 31.6487 36.3752 32.3747 37.0792 32.888C37.7832 33.3867 38.5899 33.636 39.4992 33.636ZM51.5191 26.75C50.8591 26.75 50.2578 26.6033 49.7151 26.31C49.1871 26.002 48.7691 25.5767 48.4611 25.034C48.1531 24.4767 47.9991 23.8167 47.9991 23.054C47.9991 22.2913 48.1531 21.6387 48.4611 21.096C48.7838 20.5387 49.2091 20.1133 49.7371 19.82C50.2798 19.512 50.8811 19.358 51.5411 19.358C52.2011 19.358 52.7951 19.512 53.3231 19.82C53.8511 20.1133 54.2691 20.5387 54.5771 21.096C54.8851 21.6387 55.0391 22.2913 55.0391 23.054C55.0391 23.8167 54.8778 24.4767 54.5551 25.034C54.2471 25.5767 53.8291 26.002 53.3011 26.31C52.7731 26.6033 52.1791 26.75 51.5191 26.75ZM50.1551 35L59.1091 19.6H60.9571L52.0031 35H50.1551ZM51.5191 25.32C52.0325 25.32 52.4798 25.1293 52.8611 24.748C53.2571 24.3667 53.4551 23.802 53.4551 23.054C53.4551 22.2913 53.2645 21.7193 52.8831 21.338C52.5018 20.942 52.0545 20.744 51.5411 20.744C51.0278 20.744 50.5658 20.942 50.1551 21.338C49.7591 21.7193 49.5611 22.2913 49.5611 23.054C49.5611 23.802 49.7591 24.3667 50.1551 24.748C50.5511 25.1293 51.0058 25.32 51.5191 25.32ZM59.7471 35.264C59.0871 35.264 58.4858 35.1173 57.9431 34.824C57.4151 34.516 56.9971 34.0907 56.6891 33.548C56.3811 32.9907 56.2271 32.3307 56.2271 31.568C56.2271 30.8053 56.3811 30.1527 56.6891 29.61C57.0118 29.0527 57.4371 28.6273 57.9651 28.334C58.4931 28.026 59.0871 27.872 59.7471 27.872C60.4071 27.872 61.0011 28.026 61.5291 28.334C62.0571 28.6273 62.4751 29.0527 62.7831 29.61C63.0911 30.1527 63.2451 30.8053 63.2451 31.568C63.2451 32.3307 63.0911 32.9907 62.7831 33.548C62.4751 34.0907 62.0571 34.516 61.5291 34.824C61.0011 35.1173 60.4071 35.264 59.7471 35.264ZM59.7251 33.834C60.2531 33.834 60.7078 33.6433 61.0891 33.262C61.4851 32.8807 61.6831 32.316 61.6831 31.568C61.6831 30.8053 61.4925 30.2333 61.1111 29.852C60.7298 29.4707 60.2751 29.28 59.7471 29.28C59.2338 29.28 58.7791 29.4707 58.3831 29.852C57.9871 30.2333 57.7891 30.8053 57.7891 31.568C57.7891 32.316 57.9798 32.8807 58.3611 33.262C58.7571 33.6433 59.2118 33.834 59.7251 33.834Z" fill="white"/>
<defs>
<filter id="filter0_f_274_2817" x="0" y="28" width="94" height="60" filterUnits="userSpaceOnUse" color-interpolation-filters="sRGB">
<feFlood flood-opacity="0" result="BackgroundImageFix"/>
<feBlend mode="normal" in="SourceGraphic" in2="BackgroundImageFix" result="shape"/>
<feGaussianBlur stdDeviation="10" result="effect1_foregroundBlur_274_2817"/>
</filter>
</defs>
</svg>
