<svg width="18" height="18" viewBox="0 0 18 18" fill="none" xmlns="http://www.w3.org/2000/svg">
<path fill-rule="evenodd" clip-rule="evenodd" d="M4.72573 13.2829C4.86059 13.4176 5.0554 13.5 5.25771 13.5L5.24946 13.491C5.44427 13.491 5.63908 13.4087 5.78144 13.2739L5.78219 13.2746L12.0022 7.05897V12.0025C12.0022 12.4143 12.3319 12.7512 12.7515 12.7512C13.1636 12.7512 13.5007 12.4143 13.5007 12.0025V5.26376C13.5007 5.09315 13.4449 4.93742 13.3509 4.8127C13.3283 4.78168 13.3029 4.752 13.2749 4.72397C13.0864 4.53605 12.8296 4.46633 12.5924 4.51501H6.00806C5.58847 4.51501 5.25879 4.84446 5.25879 5.26376C5.25879 5.67557 5.58847 6.0125 6.00806 6.0125H10.9222L4.71823 12.2122V12.2196C4.42602 12.5117 4.42602 12.9909 4.72573 13.2829Z" fill="#0B0B0B"/>
</svg>
