<svg width="20" height="20" viewBox="0 0 20 20" fill="none" xmlns="http://www.w3.org/2000/svg">
<path fill-rule="evenodd" clip-rule="evenodd" d="M13.3288 3.20927C13.2651 2.34689 12.5453 1.66699 11.6667 1.66699H8.33333L8.20895 1.67156C7.34656 1.73519 6.66667 2.45502 6.66667 3.33366V5.00033H4.17642H4.15877H3.33333L3.23615 5.00593C2.8217 5.05407 2.5 5.4063 2.5 5.83366C2.5 6.2939 2.8731 6.66699 3.33333 6.66699H3.39989L4.16955 15.9029L4.17349 16.0426C4.24695 17.2929 5.33527 18.3337 6.66667 18.3337H13.3333L13.4802 18.3294C14.7926 18.2534 15.8333 17.1651 15.8333 15.8337L16.5999 6.66699H16.6667L16.7639 6.66139C17.1783 6.61325 17.5 6.26102 17.5 5.83366C17.5 5.37342 17.1269 5.00033 16.6667 5.00033H13.3333V3.33366L13.3288 3.20927ZM11.6667 5.00033V3.33366H8.33333V5.00033H11.6667ZM7.5 6.66699H5.07207L5.83333 15.8337C5.83333 16.261 6.15503 16.6132 6.56948 16.6614L6.66667 16.667H13.3333C13.7629 16.667 14.1165 16.342 14.1641 15.8682L14.1695 15.7645L14.9277 6.66699H12.5H7.5ZM8.33333 8.33366C8.7607 8.33366 9.11292 8.65536 9.16106 9.06981L9.16667 9.16699V14.167C9.16667 14.6272 8.79357 15.0003 8.33333 15.0003C7.90597 15.0003 7.55374 14.6786 7.50561 14.2642L7.5 14.167V9.16699C7.5 8.70675 7.8731 8.33366 8.33333 8.33366ZM12.4944 9.06981C12.4463 8.65536 12.094 8.33366 11.6667 8.33366C11.2064 8.33366 10.8333 8.70675 10.8333 9.16699V14.167L10.8389 14.2642C10.8871 14.6786 11.2393 15.0003 11.6667 15.0003C12.1269 15.0003 12.5 14.6272 12.5 14.167V9.16699L12.4944 9.06981Z" fill="#0B0B0B"/>
</svg>
