<svg width="18" height="18" viewBox="0 0 18 18" fill="none" xmlns="http://www.w3.org/2000/svg">
<path fill-rule="evenodd" clip-rule="evenodd" d="M8.99996 0.666656C4.39759 0.666656 0.666626 4.39762 0.666626 8.99999C0.666626 13.6024 4.39759 17.3333 8.99996 17.3333C13.6023 17.3333 17.3333 13.6024 17.3333 8.99999C17.3333 4.39762 13.6023 0.666656 8.99996 0.666656ZM8.99996 2.33332C12.6819 2.33332 15.6666 5.31809 15.6666 8.99999C15.6666 12.6819 12.6819 15.6667 8.99996 15.6667C5.31806 15.6667 2.33329 12.6819 2.33329 8.99999C2.33329 5.31809 5.31806 2.33332 8.99996 2.33332ZM12.0892 6.74407C11.7638 6.41863 11.2361 6.41863 10.9107 6.74407L8.16663 9.48749L7.08921 8.41073L7.01071 8.34141C6.6838 8.08722 6.21111 8.11033 5.9107 8.41073C5.58527 8.73617 5.58527 9.26381 5.9107 9.58925L7.57737 11.2559L7.65588 11.3252C7.98279 11.5794 8.45548 11.5563 8.75588 11.2559L12.0892 7.92258L12.1585 7.84407C12.4127 7.51716 12.3896 7.04447 12.0892 6.74407Z" fill="#579BEA"/>
</svg>
