<svg width="18" height="15" viewBox="0 0 18 15" fill="none" xmlns="http://www.w3.org/2000/svg">
<path fill-rule="evenodd" clip-rule="evenodd" d="M8.54894 12.8405C8.61068 13.0113 8.645 13.1959 8.645 13.3873C8.645 14.279 7.92144 15 7.02643 15C6.13484 15 5.41127 14.279 5.41127 13.3873C5.41127 12.8508 5.67188 12.3758 6.0765 12.082L6.0662 12.0546L2.3833 1.12073H1.28595H0.562389C0.253759 1.12073 0 0.871325 0 0.560401C0 0.252873 0.253759 -9.53674e-07 0.562389 -9.53674e-07H1.28595H2.00262H2.74679C2.90111 -9.53674e-07 3.04171 0.0615187 3.14459 0.164027C3.20285 0.215281 3.25429 0.2802 3.29891 0.372443L4.26589 3.21183L17.5197 3.19477C18.0204 3.19477 18.0547 3.55355 17.9552 3.81662L17.5094 5.20728C17.3037 5.84966 17.0876 6.46125 16.8819 7.0797L15.9525 9.8679C15.8531 10.1652 15.8017 10.5137 15.4485 10.5923C15.3902 10.6059 15.1878 10.6196 14.8929 10.6196L6.78636 10.6162L7.12242 11.7779H7.45159H9.18682C10.1333 11.7779 10.0818 11.7779 11.0283 11.7779C12.0433 11.7779 13.0584 11.7779 14.0734 11.7779C14.965 11.7779 15.6885 12.4989 15.6885 13.3873C15.6885 14.279 14.965 15 14.0734 15C12.9452 15 12.1736 13.8793 12.5508 12.8405H11.4021H9.18682H8.54894Z" fill="white"/>
</svg>
