<svg width="14" height="8" viewBox="0 0 14 8" fill="none" xmlns="http://www.w3.org/2000/svg">
<path d="M7 7.99512C7.3418 7.99512 7.62891 7.86523 7.89551 7.5918L12.9541 2.41699C13.1592 2.21191 13.2617 1.96582 13.2617 1.66504C13.2617 1.05664 12.7764 0.564453 12.1748 0.564453C11.8809 0.564453 11.6006 0.6875 11.375 0.913086L7.00684 5.4248L2.63184 0.913086C2.40625 0.6875 2.12598 0.564453 1.8252 0.564453C1.22363 0.564453 0.738281 1.05664 0.738281 1.66504C0.738281 1.95898 0.84082 2.20508 1.0459 2.41699L6.10449 7.5918C6.38477 7.87207 6.66504 7.99512 7 7.99512Z" fill="#B0B0B0"/>
</svg>
