<svg width="15" height="16" viewBox="0 0 15 16" fill="none" xmlns="http://www.w3.org/2000/svg">
<path fill-rule="evenodd" clip-rule="evenodd" d="M1.72811 0.866285C1.30779 0.539473 0.700047 0.569183 0.313814 0.955416C-0.104605 1.37383 -0.104605 2.05223 0.313814 2.47064L5.98477 8.1416L0.313814 13.8126L0.224684 13.9135C-0.102129 14.3338 -0.0724187 14.9416 0.313814 15.3278C0.732233 15.7462 1.41062 15.7462 1.82904 15.3278L7.5 9.65683L13.171 15.3278L13.2719 15.4169C13.6922 15.7437 14.3 15.714 14.6862 15.3278C15.1046 14.9094 15.1046 14.231 14.6862 13.8126L9.01523 8.1416L14.6862 2.47064L14.7753 2.36971C15.1021 1.9494 15.0724 1.34165 14.6862 0.955416C14.2678 0.536997 13.5894 0.536997 13.171 0.955416L7.5 6.62637L1.82904 0.955416L1.72811 0.866285Z" fill="black"/>
</svg>
