<svg width="15" height="15" viewBox="0 0 15 15" fill="none" xmlns="http://www.w3.org/2000/svg">
<path fill-rule="evenodd" clip-rule="evenodd" d="M6.77157 3.5633C7.31048 2.6292 8.67303 2.67284 9.15105 3.63951L12.9897 11.402C13.4334 12.2993 12.7805 13.3505 11.7795 13.3505H3.46254C2.42351 13.3505 1.77396 12.2258 2.29319 11.3258L6.77157 3.5633ZM10.3164 3.06326C9.37801 1.16572 6.70338 1.08005 5.64553 2.91366L1.16715 10.6762C0.147923 12.4429 1.42295 14.6504 3.46254 14.6504H11.7795C13.7444 14.6504 15.0259 12.5871 14.155 10.8258L10.3164 3.06326ZM7.66575 5.33282C8.00764 5.33282 8.28942 5.59018 8.32793 5.92174L8.33242 5.99949L8.33242 8.66615C8.33242 9.03434 8.03394 9.33282 7.66575 9.33282C7.32386 9.33282 7.04208 9.07546 7.00357 8.7439L6.99909 8.66615L6.99909 5.99949C6.99909 5.6313 7.29756 5.33282 7.66575 5.33282ZM7.67242 10.6668C8.04061 10.6668 8.33909 10.9653 8.33909 11.3335C8.33909 11.6754 8.08173 11.9571 7.75017 11.9956L7.66575 12.0001C7.29756 12.0001 6.99909 11.7017 6.99909 11.3335C6.99909 10.9916 7.25645 10.7098 7.588 10.6713L7.67242 10.6668Z" fill="#CA0000"/>
</svg>
