<svg width="354" height="83" viewBox="0 0 354 83" fill="none" xmlns="http://www.w3.org/2000/svg">
<path d="M26.0897 31.014L26.4159 37.7528H0L18.9151 4.05878H11.0881C6.84855 4.05878 2.60897 7.76512 1.30448 8.439H0.978363V1.7002H27.3942L8.47916 35.3942H16.6322C20.5457 35.7312 25.1114 31.6879 26.0897 31.014Z" fill="white"/>
<path d="M53.4839 34.7215C53.1578 36.7431 51.5272 38.0909 49.2444 38.0909C46.6354 38.0909 45.0048 36.7431 44.6787 34.3845C43.3742 36.4062 41.0913 38.4278 37.504 38.4278C32.286 38.4278 29.6771 34.7215 29.6771 30.6782C29.6771 25.2871 35.2211 21.9177 41.4174 22.9285C42.3958 22.9285 43.7003 23.2655 44.6787 23.6024V20.57C44.6787 16.8636 43.3742 14.842 41.4174 14.842C38.4823 14.842 32.6122 19.8961 31.6338 20.9069H31.3077V14.505C35.2211 13.1573 39.1346 12.4834 41.7436 12.4834C47.6138 12.4834 50.5489 15.8528 50.5489 20.57V31.689C50.2227 34.3845 51.2011 35.3953 53.4839 34.7215ZM44.0264 32.6998V24.6132C43.7003 24.6132 43.3742 24.6132 43.048 24.6132C37.8301 23.6024 35.2211 26.2979 35.2211 29.6673C35.2211 32.6998 37.1779 34.7215 39.7868 34.7215C41.7436 34.7215 43.0481 34.0476 44.0264 32.6998Z" fill="white"/>
<path d="M75.008 31.351L75.3341 37.7529H54.7885L67.8333 14.841H64.246C60.6586 14.841 56.7452 18.5473 55.7668 19.2212H55.4407V12.8193H75.9864L62.9415 35.7313H66.5288C70.4423 35.7313 74.3558 32.0249 75.008 31.351Z" fill="white"/>
<path d="M99.7933 30.6782C98.4888 34.3845 94.9015 38.0909 89.3574 38.0909C83.4872 38.0909 77.617 33.7106 77.617 25.2871C77.617 17.2006 82.5088 12.4834 89.3574 12.4834C96.5321 12.4834 100.119 18.2114 100.119 24.6132H84.1394C84.4655 30.0043 87.0745 34.0476 91.9664 34.0476C94.9014 34.0476 97.1843 33.0368 99.7933 30.6782ZM84.4656 23.2655L94.2492 22.2547C94.2492 18.2114 92.9447 14.505 89.6835 14.505C85.77 14.1681 84.1394 18.5483 84.4656 23.2655Z" fill="white"/>
<path d="M103.055 37.4169C103.381 36.4061 104.359 33.3737 104.359 30.0043V8.77702C104.359 5.74456 103.381 2.37516 103.055 1.70128V1.36434L110.229 0.353516V30.0043C110.229 33.0367 111.208 36.4061 111.534 37.4169V37.7539L103.055 37.4169Z" fill="white"/>
<path d="M136.319 30.6782C135.014 34.3845 131.427 38.0909 125.883 38.0909C120.013 38.0909 114.143 33.7106 114.143 25.2871C114.143 17.2006 119.034 12.4834 125.883 12.4834C133.058 12.4834 136.645 18.2114 136.645 24.6132H120.665C120.991 30.0043 123.6 34.0476 128.492 34.0476C131.101 34.0476 133.384 33.0368 136.319 30.6782ZM120.665 23.2655L130.449 22.2547C130.449 18.2114 129.144 14.505 125.883 14.505C121.97 14.1681 120.665 18.5483 120.665 23.2655Z" fill="white"/>
<path d="M163.713 37.416L155.56 37.753V37.416C155.56 36.4052 156.865 33.3727 156.865 30.0033V21.5798C156.865 17.8735 154.582 16.1888 152.299 16.1888C150.668 16.1888 148.711 16.8627 147.081 18.5474V30.0033C147.081 33.0358 148.059 36.4052 148.059 37.416V37.753H139.906V37.416C140.232 36.4052 141.211 33.3727 141.211 30.0033V20.2321C141.211 17.1996 140.232 13.8302 139.906 12.8194V12.4824H147.081V16.8627C148.711 14.1671 151.32 12.1455 154.908 12.1455C159.147 12.1455 162.735 14.841 162.735 20.569V30.0033C162.409 33.3727 163.387 36.7421 163.713 37.416Z" fill="white"/>
<path d="M166.974 4.05891C166.974 1.70033 168.605 0.015625 170.888 0.015625C173.171 0.015625 174.801 1.70033 174.801 4.05891C174.801 6.41749 172.845 8.10219 170.888 8.10219C168.931 8.10219 166.974 6.41749 166.974 4.05891ZM166.974 37.416C166.974 36.4052 168.279 33.3727 168.279 30.0033V20.232C168.279 17.1996 167.3 13.8302 166.974 12.8194V12.4824H174.149V30.0033C174.149 33.0358 175.127 36.4052 175.454 37.416V37.7529L166.974 37.416Z" fill="white"/>
<path d="M216.545 37.416L208.392 37.753V37.416C208.718 36.4052 209.696 33.3727 209.696 30.0033V21.5798C209.696 17.8735 207.413 16.5257 205.131 16.5257C203.826 16.5257 202.196 17.1996 200.891 18.2104C200.891 18.8843 201.217 19.8951 201.217 20.569V30.0033C201.217 33.0358 202.196 36.4052 202.522 37.416V37.753H194.369V37.416C194.695 36.4052 195.673 33.3727 195.673 30.0033V21.5798C195.673 17.8735 193.39 16.5257 191.107 16.5257C189.803 16.5257 188.498 17.1996 187.194 18.2104V30.0033C187.194 33.0358 188.172 36.4052 188.172 37.416V37.753H180.019V37.416C180.345 36.4052 181.324 33.3727 181.324 30.0033V20.2321C181.324 17.1996 180.345 13.8302 180.019 12.8194V12.4824H187.194V16.5257C189.151 13.8302 191.433 12.1455 194.369 12.1455C197.304 12.1455 200.239 13.4933 201.217 16.8627C203.174 13.8302 205.457 12.1455 209.044 12.1455C212.958 12.1455 216.545 14.841 216.545 20.569V30.0033C215.24 33.3727 216.219 36.7421 216.545 37.416Z" fill="white"/>
<path d="M218.828 24.9492C218.828 16.5257 224.372 12.1455 231.22 12.1455C237.743 12.1455 243.613 16.5257 243.613 24.9492C243.613 33.3727 238.069 38.0899 231.22 38.0899C224.698 38.0899 218.828 33.3727 218.828 24.9492ZM236.765 24.9492C236.765 19.2212 234.808 14.1671 231.22 14.1671C227.307 14.1671 225.676 19.5582 225.676 24.9492C225.676 30.6772 227.307 36.0683 231.22 36.0683C235.134 36.0683 236.765 30.6772 236.765 24.9492Z" fill="white"/>
<path d="M259.282 36.1959V28.7833H259.608C262.869 32.4896 267.435 37.5437 272.327 37.5437C275.914 37.5437 278.523 35.5221 278.523 31.8157C278.523 27.4355 274.61 25.4139 269.065 23.7292C263.195 21.3706 258.956 18.0012 258.956 12.9471C258.956 7.55603 263.521 2.83887 271.348 2.83887C275.914 2.83887 280.154 4.52357 283.089 5.87133V12.9471H282.763C279.501 9.57767 274.936 4.86051 270.37 4.86051C266.783 4.86051 264.5 7.21909 264.5 9.91461C264.5 13.621 269.065 15.6426 274.61 17.6642C282.11 20.6967 284.393 24.74 284.393 29.1202C284.393 36.1959 278.523 39.5654 271.674 39.5654C268.087 39.5654 263.848 38.2176 259.282 36.1959Z" fill="white"/>
<path d="M311.135 26.0879C311.135 35.1853 305.917 39.2286 301.025 39.2286C298.742 39.2286 296.46 38.5547 294.503 36.1961V41.2502C294.503 44.2827 295.481 47.6521 295.807 48.6629V48.9998H287.328V48.6629C287.654 47.6521 288.633 44.6196 288.633 41.2502V21.7077C288.633 18.6752 287.654 15.3058 287.328 14.295V13.9581H288.307L294.503 13.6211V16.9905C296.134 14.6319 298.742 13.2842 301.678 13.2842C306.896 13.6211 311.135 18.0013 311.135 26.0879ZM304.613 26.4248C304.613 21.7077 302.982 17.3275 299.069 17.3275C297.438 17.3275 296.134 18.3383 294.829 19.686V34.8484C296.134 35.8592 297.438 36.5331 298.742 36.5331C302.656 36.1961 304.613 31.8159 304.613 26.4248Z" fill="white"/>
<path d="M313.744 38.8935C314.07 37.8827 315.049 34.8502 315.049 31.4808V10.2536C315.049 7.22112 314.07 3.85172 313.744 3.17784V2.8409L320.919 1.83008V31.4808C320.919 34.5133 321.897 37.8827 322.223 38.8935V39.2304L313.744 38.8935Z" fill="white"/>
<path d="M325.485 5.53547C325.485 3.17688 327.115 1.49219 329.398 1.49219C331.681 1.49219 333.311 3.17688 333.311 5.53547C333.311 7.89405 331.355 9.57875 329.398 9.57875C327.441 9.57875 325.485 7.89405 325.485 5.53547ZM325.811 38.8926C325.811 37.8817 327.115 34.8493 327.115 31.4799V21.7086C327.115 18.6761 326.137 15.3067 325.811 14.2959V13.959H332.985V31.4799C332.985 34.5123 333.964 37.8817 334.29 38.8926V39.2295L325.811 38.8926Z" fill="white"/>
<path d="M353.205 34.176C351.9 37.2084 349.618 39.567 346.03 39.567C342.117 39.567 339.834 36.8715 339.834 32.1543V16.3181H336.247V14.6334C340.812 12.9487 343.421 9.91628 345.378 6.54688H345.704V14.2965H352.227V16.3181H345.704V31.4804C345.704 34.176 347.009 35.5237 348.965 35.5237C350.27 35.1868 351.574 34.8498 353.205 34.176Z" fill="white"/>
<path d="M11.47 75.264C9.91533 75.264 8.58067 74.934 7.466 74.274C6.35133 73.5993 5.49333 72.668 4.892 71.48C4.29067 70.2773 3.99 68.8913 3.99 67.322C3.99 65.7527 4.29067 64.3667 4.892 63.164C5.49333 61.9613 6.35133 61.0227 7.466 60.348C8.58067 59.6733 9.91533 59.336 11.47 59.336C13.318 59.336 14.8287 59.798 16.002 60.722C17.19 61.6313 17.9307 62.9147 18.224 64.572H15.122C14.9313 63.736 14.5207 63.0833 13.89 62.614C13.274 62.13 12.4527 61.888 11.426 61.888C10.0033 61.888 8.88867 62.372 8.082 63.34C7.27533 64.308 6.872 65.6353 6.872 67.322C6.872 69.0087 7.27533 70.336 8.082 71.304C8.88867 72.2573 10.0033 72.734 11.426 72.734C12.4527 72.734 13.274 72.514 13.89 72.074C14.5207 71.6193 14.9313 70.996 15.122 70.204H18.224C17.9307 71.788 17.19 73.0273 16.002 73.922C14.8287 74.8167 13.318 75.264 11.47 75.264ZM22.1687 62.394C21.6554 62.394 21.23 62.24 20.8927 61.932C20.57 61.624 20.4087 61.2353 20.4087 60.766C20.4087 60.2967 20.57 59.9153 20.8927 59.622C21.23 59.314 21.6554 59.16 22.1687 59.16C22.682 59.16 23.1 59.314 23.4227 59.622C23.76 59.9153 23.9287 60.2967 23.9287 60.766C23.9287 61.2353 23.76 61.624 23.4227 61.932C23.1 62.24 22.682 62.394 22.1687 62.394ZM20.7607 75V64.088H23.5767V75H20.7607ZM31.3779 75C30.2339 75 29.3173 74.7213 28.6279 74.164C27.9386 73.6067 27.5939 72.6167 27.5939 71.194V66.442H25.7239V64.088H27.5939L27.9239 61.162H30.4099V64.088H33.3579V66.442H30.4099V71.216C30.4099 71.744 30.5199 72.1107 30.7399 72.316C30.9746 72.5067 31.3706 72.602 31.9279 72.602H33.2919V75H31.3779ZM37.2937 62.394C36.7804 62.394 36.355 62.24 36.0177 61.932C35.695 61.624 35.5337 61.2353 35.5337 60.766C35.5337 60.2967 35.695 59.9153 36.0177 59.622C36.355 59.314 36.7804 59.16 37.2937 59.16C37.807 59.16 38.225 59.314 38.5477 59.622C38.885 59.9153 39.0537 60.2967 39.0537 60.766C39.0537 61.2353 38.885 61.624 38.5477 61.932C38.225 62.24 37.807 62.394 37.2937 62.394ZM35.8857 75V64.088H38.7017V75H35.8857ZM40.9369 75V72.734L46.5029 66.42H41.0029V64.088H49.7149V66.354L44.0609 72.668H49.8249V75H40.9369ZM57.4703 75.264C56.3703 75.264 55.3949 75.0293 54.5443 74.56C53.6936 74.0907 53.0263 73.4307 52.5423 72.58C52.0583 71.7293 51.8163 70.7467 51.8163 69.632C51.8163 68.5027 52.0509 67.498 52.5203 66.618C53.0043 65.738 53.6643 65.056 54.5003 64.572C55.3509 64.0733 56.3483 63.824 57.4923 63.824C58.5629 63.824 59.5089 64.0587 60.3303 64.528C61.1516 64.9973 61.7896 65.6427 62.2443 66.464C62.7136 67.2707 62.9483 68.1727 62.9483 69.17C62.9483 69.3313 62.9409 69.5 62.9263 69.676C62.9263 69.852 62.9189 70.0353 62.9043 70.226H54.6103C54.6689 71.0767 54.9623 71.744 55.4903 72.228C56.0329 72.712 56.6856 72.954 57.4483 72.954C58.0203 72.954 58.4969 72.8293 58.8783 72.58C59.2743 72.316 59.5676 71.9787 59.7583 71.568H62.6183C62.4129 72.2573 62.0683 72.888 61.5843 73.46C61.1149 74.0173 60.5283 74.4573 59.8243 74.78C59.1349 75.1027 58.3503 75.264 57.4703 75.264ZM57.4923 66.112C56.8029 66.112 56.1943 66.31 55.6663 66.706C55.1383 67.0873 54.8009 67.674 54.6543 68.466H60.0883C60.0443 67.7473 59.7803 67.1753 59.2963 66.75C58.8123 66.3247 58.2109 66.112 57.4923 66.112ZM65.3167 75V64.088H67.8027L68.0227 65.936C68.3601 65.2907 68.8441 64.7773 69.4747 64.396C70.1201 64.0147 70.8754 63.824 71.7407 63.824C73.0901 63.824 74.1387 64.2493 74.8867 65.1C75.6347 65.9507 76.0087 67.1973 76.0087 68.84V75H73.1927V69.104C73.1927 68.1653 73.0021 67.4467 72.6207 66.948C72.2394 66.4493 71.6454 66.2 70.8387 66.2C70.0467 66.2 69.3941 66.4787 68.8807 67.036C68.3821 67.5933 68.1327 68.3707 68.1327 69.368V75H65.3167ZM83.2115 75.264C82.2435 75.264 81.3928 75.11 80.6595 74.802C79.9262 74.4793 79.3395 74.0393 78.8995 73.482C78.4595 72.9247 78.1955 72.2793 78.1075 71.546H80.9455C81.0335 71.9713 81.2682 72.338 81.6495 72.646C82.0455 72.9393 82.5515 73.086 83.1675 73.086C83.7835 73.086 84.2308 72.9613 84.5095 72.712C84.8028 72.4627 84.9495 72.1767 84.9495 71.854C84.9495 71.3847 84.7442 71.0693 84.3335 70.908C83.9228 70.732 83.3508 70.5633 82.6175 70.402C82.1482 70.2993 81.6715 70.1747 81.1875 70.028C80.7035 69.8813 80.2562 69.698 79.8455 69.478C79.4495 69.2433 79.1268 68.95 78.8775 68.598C78.6282 68.2313 78.5035 67.784 78.5035 67.256C78.5035 66.288 78.8848 65.474 79.6475 64.814C80.4248 64.154 81.5102 63.824 82.9035 63.824C84.1942 63.824 85.2208 64.1247 85.9835 64.726C86.7608 65.3273 87.2228 66.156 87.3695 67.212H84.7075C84.5462 66.4053 83.9375 66.002 82.8815 66.002C82.3535 66.002 81.9428 66.1047 81.6495 66.31C81.3708 66.5153 81.2315 66.772 81.2315 67.08C81.2315 67.4027 81.4442 67.6593 81.8695 67.85C82.2948 68.0407 82.8595 68.2167 83.5635 68.378C84.3262 68.554 85.0228 68.752 85.6535 68.972C86.2988 69.1773 86.8122 69.4927 87.1935 69.918C87.5748 70.3287 87.7655 70.9227 87.7655 71.7C87.7802 72.3747 87.6042 72.9833 87.2375 73.526C86.8708 74.0687 86.3428 74.494 85.6535 74.802C84.9642 75.11 84.1502 75.264 83.2115 75.264ZM98.4503 75L94.4463 64.088H97.3943L100.166 72.338L102.938 64.088H105.886L101.86 75H98.4503ZM112.361 75.264C111.305 75.264 110.352 75.022 109.501 74.538C108.665 74.054 107.998 73.3867 107.499 72.536C107.015 71.6707 106.773 70.6733 106.773 69.544C106.773 68.4147 107.023 67.4247 107.521 66.574C108.02 65.7087 108.687 65.034 109.523 64.55C110.374 64.066 111.327 63.824 112.383 63.824C113.425 63.824 114.363 64.066 115.199 64.55C116.05 65.034 116.717 65.7087 117.201 66.574C117.7 67.4247 117.949 68.4147 117.949 69.544C117.949 70.6733 117.7 71.6707 117.201 72.536C116.717 73.3867 116.05 74.054 115.199 74.538C114.349 75.022 113.403 75.264 112.361 75.264ZM112.361 72.822C113.095 72.822 113.733 72.5507 114.275 72.008C114.818 71.4507 115.089 70.6293 115.089 69.544C115.089 68.4587 114.818 67.6447 114.275 67.102C113.733 66.5447 113.102 66.266 112.383 66.266C111.635 66.266 110.99 66.5447 110.447 67.102C109.919 67.6447 109.655 68.4587 109.655 69.544C109.655 70.6293 109.919 71.4507 110.447 72.008C110.99 72.5507 111.628 72.822 112.361 72.822ZM124.899 75C123.755 75 122.839 74.7213 122.149 74.164C121.46 73.6067 121.115 72.6167 121.115 71.194V66.442H119.245V64.088H121.115L121.445 61.162H123.931V64.088H126.879V66.442H123.931V71.216C123.931 71.744 124.041 72.1107 124.261 72.316C124.496 72.5067 124.892 72.602 125.449 72.602H126.813V75H124.899ZM130.815 62.394C130.302 62.394 129.877 62.24 129.539 61.932C129.217 61.624 129.055 61.2353 129.055 60.766C129.055 60.2967 129.217 59.9153 129.539 59.622C129.877 59.314 130.302 59.16 130.815 59.16C131.329 59.16 131.747 59.314 132.069 59.622C132.407 59.9153 132.575 60.2967 132.575 60.766C132.575 61.2353 132.407 61.624 132.069 61.932C131.747 62.24 131.329 62.394 130.815 62.394ZM129.407 75V64.088H132.223V75H129.407ZM135.162 75V64.088H137.648L137.868 65.936C138.206 65.2907 138.69 64.7773 139.32 64.396C139.966 64.0147 140.721 63.824 141.586 63.824C142.936 63.824 143.984 64.2493 144.732 65.1C145.48 65.9507 145.854 67.1973 145.854 68.84V75H143.038V69.104C143.038 68.1653 142.848 67.4467 142.466 66.948C142.085 66.4493 141.491 66.2 140.684 66.2C139.892 66.2 139.24 66.4787 138.726 67.036C138.228 67.5933 137.978 68.3707 137.978 69.368V75H135.162ZM153.167 71.744C152.639 71.744 152.148 71.6853 151.693 71.568L150.879 72.382C151.129 72.514 151.466 72.624 151.891 72.712C152.317 72.8 153.006 72.888 153.959 72.976C155.411 73.108 156.467 73.4527 157.127 74.01C157.787 74.5673 158.117 75.3373 158.117 76.32C158.117 76.9653 157.941 77.574 157.589 78.146C157.237 78.7327 156.695 79.202 155.961 79.554C155.228 79.9207 154.289 80.104 153.145 80.104C151.591 80.104 150.337 79.8107 149.383 79.224C148.43 78.652 147.953 77.7867 147.953 76.628C147.953 75.6453 148.43 74.7947 149.383 74.076C149.09 73.944 148.833 73.8047 148.613 73.658C148.408 73.5113 148.225 73.3573 148.063 73.196V72.69L149.977 70.666C149.127 69.918 148.701 68.9573 148.701 67.784C148.701 67.0507 148.877 66.3833 149.229 65.782C149.596 65.1807 150.109 64.704 150.769 64.352C151.429 64 152.229 63.824 153.167 63.824C153.783 63.824 154.355 63.912 154.883 64.088H159.019V65.804L157.149 65.936C157.443 66.4933 157.589 67.1093 157.589 67.784C157.589 68.5173 157.413 69.1847 157.061 69.786C156.709 70.3873 156.196 70.864 155.521 71.216C154.861 71.568 154.077 71.744 153.167 71.744ZM153.167 69.588C153.739 69.588 154.209 69.434 154.575 69.126C154.957 68.818 155.147 68.378 155.147 67.806C155.147 67.234 154.957 66.794 154.575 66.486C154.209 66.178 153.739 66.024 153.167 66.024C152.566 66.024 152.082 66.178 151.715 66.486C151.349 66.794 151.165 67.234 151.165 67.806C151.165 68.378 151.349 68.818 151.715 69.126C152.082 69.434 152.566 69.588 153.167 69.588ZM150.527 76.342C150.527 76.8847 150.777 77.288 151.275 77.552C151.789 77.8307 152.412 77.97 153.145 77.97C153.849 77.97 154.421 77.8233 154.861 77.53C155.301 77.2513 155.521 76.87 155.521 76.386C155.521 75.99 155.375 75.66 155.081 75.396C154.803 75.132 154.238 74.9707 153.387 74.912C152.786 74.868 152.229 74.802 151.715 74.714C151.29 74.9487 150.982 75.2053 150.791 75.484C150.615 75.7627 150.527 76.0487 150.527 76.342ZM166.821 75V66.442H165.325V64.088H166.821V62.812C166.821 61.492 167.151 60.5533 167.811 59.996C168.485 59.4387 169.395 59.16 170.539 59.16H171.749V61.558H170.979C170.495 61.558 170.15 61.6533 169.945 61.844C169.739 62.0347 169.637 62.3573 169.637 62.812V64.088H171.991V66.442H169.637V75H166.821ZM179.027 75.264C177.971 75.264 177.018 75.022 176.167 74.538C175.331 74.054 174.664 73.3867 174.165 72.536C173.681 71.6707 173.439 70.6733 173.439 69.544C173.439 68.4147 173.689 67.4247 174.187 66.574C174.686 65.7087 175.353 65.034 176.189 64.55C177.04 64.066 177.993 63.824 179.049 63.824C180.091 63.824 181.029 64.066 181.865 64.55C182.716 65.034 183.383 65.7087 183.867 66.574C184.366 67.4247 184.615 68.4147 184.615 69.544C184.615 70.6733 184.366 71.6707 183.867 72.536C183.383 73.3867 182.716 74.054 181.865 74.538C181.015 75.022 180.069 75.264 179.027 75.264ZM179.027 72.822C179.761 72.822 180.399 72.5507 180.941 72.008C181.484 71.4507 181.755 70.6293 181.755 69.544C181.755 68.4587 181.484 67.6447 180.941 67.102C180.399 66.5447 179.768 66.266 179.049 66.266C178.301 66.266 177.656 66.5447 177.113 67.102C176.585 67.6447 176.321 68.4587 176.321 69.544C176.321 70.6293 176.585 71.4507 177.113 72.008C177.656 72.5507 178.294 72.822 179.027 72.822ZM187.133 75V64.088H189.641L189.905 66.134C190.301 65.43 190.836 64.8727 191.511 64.462C192.2 64.0367 193.007 63.824 193.931 63.824V66.794H193.139C192.523 66.794 191.973 66.8893 191.489 67.08C191.005 67.2707 190.624 67.6007 190.345 68.07C190.081 68.5393 189.949 69.192 189.949 70.028V75H187.133ZM205.718 71.744C205.19 71.744 204.699 71.6853 204.244 71.568L203.43 72.382C203.679 72.514 204.017 72.624 204.442 72.712C204.867 72.8 205.557 72.888 206.51 72.976C207.962 73.108 209.018 73.4527 209.678 74.01C210.338 74.5673 210.668 75.3373 210.668 76.32C210.668 76.9653 210.492 77.574 210.14 78.146C209.788 78.7327 209.245 79.202 208.512 79.554C207.779 79.9207 206.84 80.104 205.696 80.104C204.141 80.104 202.887 79.8107 201.934 79.224C200.981 78.652 200.504 77.7867 200.504 76.628C200.504 75.6453 200.981 74.7947 201.934 74.076C201.641 73.944 201.384 73.8047 201.164 73.658C200.959 73.5113 200.775 73.3573 200.614 73.196V72.69L202.528 70.666C201.677 69.918 201.252 68.9573 201.252 67.784C201.252 67.0507 201.428 66.3833 201.78 65.782C202.147 65.1807 202.66 64.704 203.32 64.352C203.98 64 204.779 63.824 205.718 63.824C206.334 63.824 206.906 63.912 207.434 64.088H211.57V65.804L209.7 65.936C209.993 66.4933 210.14 67.1093 210.14 67.784C210.14 68.5173 209.964 69.1847 209.612 69.786C209.26 70.3873 208.747 70.864 208.072 71.216C207.412 71.568 206.627 71.744 205.718 71.744ZM205.718 69.588C206.29 69.588 206.759 69.434 207.126 69.126C207.507 68.818 207.698 68.378 207.698 67.806C207.698 67.234 207.507 66.794 207.126 66.486C206.759 66.178 206.29 66.024 205.718 66.024C205.117 66.024 204.633 66.178 204.266 66.486C203.899 66.794 203.716 67.234 203.716 67.806C203.716 68.378 203.899 68.818 204.266 69.126C204.633 69.434 205.117 69.588 205.718 69.588ZM203.078 76.342C203.078 76.8847 203.327 77.288 203.826 77.552C204.339 77.8307 204.963 77.97 205.696 77.97C206.4 77.97 206.972 77.8233 207.412 77.53C207.852 77.2513 208.072 76.87 208.072 76.386C208.072 75.99 207.925 75.66 207.632 75.396C207.353 75.132 206.789 74.9707 205.938 74.912C205.337 74.868 204.779 74.802 204.266 74.714C203.841 74.9487 203.533 75.2053 203.342 75.484C203.166 75.7627 203.078 76.0487 203.078 76.342ZM213.623 75V64.088H216.131L216.395 66.134C216.791 65.43 217.327 64.8727 218.001 64.462C218.691 64.0367 219.497 63.824 220.421 63.824V66.794H219.629C219.013 66.794 218.463 66.8893 217.979 67.08C217.495 67.2707 217.114 67.6007 216.835 68.07C216.571 68.5393 216.439 69.192 216.439 70.028V75H213.623ZM227.455 75.264C226.355 75.264 225.379 75.0293 224.529 74.56C223.678 74.0907 223.011 73.4307 222.527 72.58C222.043 71.7293 221.801 70.7467 221.801 69.632C221.801 68.5027 222.035 67.498 222.505 66.618C222.989 65.738 223.649 65.056 224.485 64.572C225.335 64.0733 226.333 63.824 227.477 63.824C228.547 63.824 229.493 64.0587 230.315 64.528C231.136 64.9973 231.774 65.6427 232.229 66.464C232.698 67.2707 232.933 68.1727 232.933 69.17C232.933 69.3313 232.925 69.5 232.911 69.676C232.911 69.852 232.903 70.0353 232.889 70.226H224.595C224.653 71.0767 224.947 71.744 225.475 72.228C226.017 72.712 226.67 72.954 227.433 72.954C228.005 72.954 228.481 72.8293 228.863 72.58C229.259 72.316 229.552 71.9787 229.743 71.568H232.603C232.397 72.2573 232.053 72.888 231.569 73.46C231.099 74.0173 230.513 74.4573 229.809 74.78C229.119 75.1027 228.335 75.264 227.455 75.264ZM227.477 66.112C226.787 66.112 226.179 66.31 225.651 66.706C225.123 67.0873 224.785 67.674 224.639 68.466H230.073C230.029 67.7473 229.765 67.1753 229.281 66.75C228.797 66.3247 228.195 66.112 227.477 66.112ZM240.603 75.264C239.503 75.264 238.528 75.0293 237.677 74.56C236.826 74.0907 236.159 73.4307 235.675 72.58C235.191 71.7293 234.949 70.7467 234.949 69.632C234.949 68.5027 235.184 67.498 235.653 66.618C236.137 65.738 236.797 65.056 237.633 64.572C238.484 64.0733 239.481 63.824 240.625 63.824C241.696 63.824 242.642 64.0587 243.463 64.528C244.284 64.9973 244.922 65.6427 245.377 66.464C245.846 67.2707 246.081 68.1727 246.081 69.17C246.081 69.3313 246.074 69.5 246.059 69.676C246.059 69.852 246.052 70.0353 246.037 70.226H237.743C237.802 71.0767 238.095 71.744 238.623 72.228C239.166 72.712 239.818 72.954 240.581 72.954C241.153 72.954 241.63 72.8293 242.011 72.58C242.407 72.316 242.7 71.9787 242.891 71.568H245.751C245.546 72.2573 245.201 72.888 244.717 73.46C244.248 74.0173 243.661 74.4573 242.957 74.78C242.268 75.1027 241.483 75.264 240.603 75.264ZM240.625 66.112C239.936 66.112 239.327 66.31 238.799 66.706C238.271 67.0873 237.934 67.674 237.787 68.466H243.221C243.177 67.7473 242.913 67.1753 242.429 66.75C241.945 66.3247 241.344 66.112 240.625 66.112ZM248.45 75V64.088H250.936L251.156 65.936C251.493 65.2907 251.977 64.7773 252.608 64.396C253.253 64.0147 254.008 63.824 254.874 63.824C256.223 63.824 257.272 64.2493 258.02 65.1C258.768 65.9507 259.142 67.1973 259.142 68.84V75H256.326V69.104C256.326 68.1653 256.135 67.4467 255.754 66.948C255.372 66.4493 254.778 66.2 253.972 66.2C253.18 66.2 252.527 66.4787 252.014 67.036C251.515 67.5933 251.266 68.3707 251.266 69.368V75H248.45ZM271.586 75.264C270.618 75.264 269.768 75.11 269.034 74.802C268.301 74.4793 267.714 74.0393 267.274 73.482C266.834 72.9247 266.57 72.2793 266.482 71.546H269.32C269.408 71.9713 269.643 72.338 270.024 72.646C270.42 72.9393 270.926 73.086 271.542 73.086C272.158 73.086 272.606 72.9613 272.884 72.712C273.178 72.4627 273.324 72.1767 273.324 71.854C273.324 71.3847 273.119 71.0693 272.708 70.908C272.298 70.732 271.726 70.5633 270.992 70.402C270.523 70.2993 270.046 70.1747 269.562 70.028C269.078 69.8813 268.631 69.698 268.22 69.478C267.824 69.2433 267.502 68.95 267.252 68.598C267.003 68.2313 266.878 67.784 266.878 67.256C266.878 66.288 267.26 65.474 268.022 64.814C268.8 64.154 269.885 63.824 271.278 63.824C272.569 63.824 273.596 64.1247 274.358 64.726C275.136 65.3273 275.598 66.156 275.744 67.212H273.082C272.921 66.4053 272.312 66.002 271.256 66.002C270.728 66.002 270.318 66.1047 270.024 66.31C269.746 66.5153 269.606 66.772 269.606 67.08C269.606 67.4027 269.819 67.6593 270.244 67.85C270.67 68.0407 271.234 68.2167 271.938 68.378C272.701 68.554 273.398 68.752 274.028 68.972C274.674 69.1773 275.187 69.4927 275.568 69.918C275.95 70.3287 276.14 70.9227 276.14 71.7C276.155 72.3747 275.979 72.9833 275.612 73.526C275.246 74.0687 274.718 74.494 274.028 74.802C273.339 75.11 272.525 75.264 271.586 75.264ZM278.635 79.84V64.088H281.143L281.451 65.65C281.803 65.166 282.265 64.7407 282.837 64.374C283.424 64.0073 284.179 63.824 285.103 63.824C286.13 63.824 287.046 64.0733 287.853 64.572C288.66 65.0707 289.298 65.7527 289.767 66.618C290.236 67.4833 290.471 68.466 290.471 69.566C290.471 70.666 290.236 71.6487 289.767 72.514C289.298 73.3647 288.66 74.0393 287.853 74.538C287.046 75.022 286.13 75.264 285.103 75.264C284.282 75.264 283.563 75.11 282.947 74.802C282.331 74.494 281.832 74.0613 281.451 73.504V79.84H278.635ZM284.509 72.8C285.404 72.8 286.144 72.4993 286.731 71.898C287.318 71.2967 287.611 70.5193 287.611 69.566C287.611 68.6127 287.318 67.828 286.731 67.212C286.144 66.596 285.404 66.288 284.509 66.288C283.6 66.288 282.852 66.596 282.265 67.212C281.693 67.8133 281.407 68.5907 281.407 69.544C281.407 70.4973 281.693 71.282 282.265 71.898C282.852 72.4993 283.6 72.8 284.509 72.8ZM296.749 75.264C295.81 75.264 295.04 75.1173 294.439 74.824C293.837 74.516 293.39 74.1127 293.097 73.614C292.803 73.1153 292.657 72.5653 292.657 71.964C292.657 70.952 293.053 70.1307 293.845 69.5C294.637 68.8693 295.825 68.554 297.409 68.554H300.181V68.29C300.181 67.542 299.968 66.992 299.543 66.64C299.117 66.288 298.589 66.112 297.959 66.112C297.387 66.112 296.888 66.2513 296.463 66.53C296.037 66.794 295.773 67.19 295.671 67.718H292.921C292.994 66.926 293.258 66.2367 293.713 65.65C294.182 65.0633 294.783 64.616 295.517 64.308C296.25 63.9853 297.071 63.824 297.981 63.824C299.535 63.824 300.76 64.2127 301.655 64.99C302.549 65.7673 302.997 66.8673 302.997 68.29V75H300.599L300.335 73.24C300.012 73.8267 299.557 74.3107 298.971 74.692C298.399 75.0733 297.658 75.264 296.749 75.264ZM297.387 73.064C298.193 73.064 298.817 72.8 299.257 72.272C299.711 71.744 299.997 71.0913 300.115 70.314H297.717C296.969 70.314 296.433 70.4533 296.111 70.732C295.788 70.996 295.627 71.326 295.627 71.722C295.627 72.1473 295.788 72.4773 296.111 72.712C296.433 72.9467 296.859 73.064 297.387 73.064ZM311.03 75.264C309.915 75.264 308.933 75.022 308.082 74.538C307.231 74.054 306.557 73.3793 306.058 72.514C305.574 71.6487 305.332 70.6587 305.332 69.544C305.332 68.4293 305.574 67.4393 306.058 66.574C306.557 65.7087 307.231 65.034 308.082 64.55C308.933 64.066 309.915 63.824 311.03 63.824C312.423 63.824 313.597 64.1907 314.55 64.924C315.503 65.6427 316.112 66.64 316.376 67.916H313.406C313.259 67.388 312.966 66.9773 312.526 66.684C312.101 66.376 311.595 66.222 311.008 66.222C310.231 66.222 309.571 66.5153 309.028 67.102C308.485 67.6887 308.214 68.5027 308.214 69.544C308.214 70.5853 308.485 71.3993 309.028 71.986C309.571 72.5727 310.231 72.866 311.008 72.866C311.595 72.866 312.101 72.7193 312.526 72.426C312.966 72.1327 313.259 71.7147 313.406 71.172H316.376C316.112 72.404 315.503 73.394 314.55 74.142C313.597 74.89 312.423 75.264 311.03 75.264ZM324.177 75.264C323.077 75.264 322.102 75.0293 321.251 74.56C320.401 74.0907 319.733 73.4307 319.249 72.58C318.765 71.7293 318.523 70.7467 318.523 69.632C318.523 68.5027 318.758 67.498 319.227 66.618C319.711 65.738 320.371 65.056 321.207 64.572C322.058 64.0733 323.055 63.824 324.199 63.824C325.27 63.824 326.216 64.0587 327.037 64.528C327.859 64.9973 328.497 65.6427 328.951 66.464C329.421 67.2707 329.655 68.1727 329.655 69.17C329.655 69.3313 329.648 69.5 329.633 69.676C329.633 69.852 329.626 70.0353 329.611 70.226H321.317C321.376 71.0767 321.669 71.744 322.197 72.228C322.74 72.712 323.393 72.954 324.155 72.954C324.727 72.954 325.204 72.8293 325.585 72.58C325.981 72.316 326.275 71.9787 326.465 71.568H329.325C329.12 72.2573 328.775 72.888 328.291 73.46C327.822 74.0173 327.235 74.4573 326.531 74.78C325.842 75.1027 325.057 75.264 324.177 75.264ZM324.199 66.112C323.51 66.112 322.901 66.31 322.373 66.706C321.845 67.0873 321.508 67.674 321.361 68.466H326.795C326.751 67.7473 326.487 67.1753 326.003 66.75C325.519 66.3247 324.918 66.112 324.199 66.112ZM336.534 75.264C335.566 75.264 334.715 75.11 333.982 74.802C333.248 74.4793 332.662 74.0393 332.222 73.482C331.782 72.9247 331.518 72.2793 331.43 71.546H334.268C334.356 71.9713 334.59 72.338 334.972 72.646C335.368 72.9393 335.874 73.086 336.49 73.086C337.106 73.086 337.553 72.9613 337.832 72.712C338.125 72.4627 338.272 72.1767 338.272 71.854C338.272 71.3847 338.066 71.0693 337.656 70.908C337.245 70.732 336.673 70.5633 335.94 70.402C335.47 70.2993 334.994 70.1747 334.51 70.028C334.026 69.8813 333.578 69.698 333.168 69.478C332.772 69.2433 332.449 68.95 332.2 68.598C331.95 68.2313 331.826 67.784 331.826 67.256C331.826 66.288 332.207 65.474 332.97 64.814C333.747 64.154 334.832 63.824 336.226 63.824C337.516 63.824 338.543 64.1247 339.306 64.726C340.083 65.3273 340.545 66.156 340.692 67.212H338.03C337.868 66.4053 337.26 66.002 336.204 66.002C335.676 66.002 335.265 66.1047 334.972 66.31C334.693 66.5153 334.554 66.772 334.554 67.08C334.554 67.4027 334.766 67.6593 335.192 67.85C335.617 68.0407 336.182 68.2167 336.886 68.378C337.648 68.554 338.345 68.752 338.976 68.972C339.621 69.1773 340.134 69.4927 340.516 69.918C340.897 70.3287 341.088 70.9227 341.088 71.7C341.102 72.3747 340.926 72.9833 340.56 73.526C340.193 74.0687 339.665 74.494 338.976 74.802C338.286 75.11 337.472 75.264 336.534 75.264Z" fill="#6AFCAD"/>
</svg>
