<svg width="269" height="63" viewBox="0 0 269 63" fill="none" xmlns="http://www.w3.org/2000/svg">
<path d="M21 23.7664L21.25 29H1L15.5 2.83178H9.5C6.25 2.83178 2.99999 5.71028 1.99999 6.23364H1.75V1H22L7.5 27.1682H13.75C16.75 27.4299 20.25 24.2897 21 23.7664Z" fill="white"/>
<path d="M42 26.1429C41.7534 27.7013 40.5205 28.7403 38.7945 28.7403C36.8219 28.7403 35.589 27.7013 35.3425 25.8831C34.3562 27.4416 32.6301 29 29.9178 29C25.9726 29 24 26.1429 24 23.026C24 18.8701 28.1918 16.2727 32.8767 17.0519C33.6164 17.0519 34.6027 17.3117 35.3425 17.5714V15.2338C35.3425 12.3766 34.3562 10.8182 32.8767 10.8182C30.6575 10.8182 26.2192 14.7143 25.4794 15.4935H25.2329V10.5584C28.1918 9.51948 31.1507 9 33.1233 9C37.5616 9 39.7808 11.5974 39.7808 15.2338V23.8052C39.5343 25.8831 40.274 26.6623 42 26.1429ZM34.8493 24.5844V18.3506C34.6027 18.3506 34.3562 18.3506 34.1096 18.3506C30.1644 17.5714 28.1918 19.6493 28.1918 22.2468C28.1918 24.5844 29.6712 26.1429 31.6438 26.1429C33.1233 26.1429 34.1096 25.6234 34.8493 24.5844Z" fill="white"/>
<path d="M58.2615 24.1216L58.5077 29H43L52.8462 11.5405H50.1385C47.4308 11.5405 44.4769 14.3649 43.7385 14.8784H43.4923V10H59L49.1538 27.4595H51.8615C54.8154 27.4595 57.7692 24.6351 58.2615 24.1216Z" fill="white"/>
<path d="M76.7536 23.2105C75.7681 26.1053 73.058 29 68.8696 29C64.4348 29 60 25.579 60 19C60 12.6842 63.6957 9 68.8696 9C74.2899 9 77 13.4737 77 18.4737H64.9275C65.1739 22.6842 67.1449 25.8421 70.8406 25.8421C73.058 25.8421 74.7826 25.0526 76.7536 23.2105ZM65.1739 17.4211L72.5652 16.6316C72.5652 13.4737 71.5797 10.5789 69.1159 10.5789C66.1594 10.3158 64.9275 13.7368 65.1739 17.4211Z" fill="white"/>
<path d="M79 28.7387C79.2692 27.955 80.0769 25.6036 80.0769 22.991V6.53153C80.0769 4.18018 79.2692 1.56757 79 1.04505V0.783784L84.9231 0V22.991C84.9231 25.3423 85.7308 27.955 86 28.7387V29L79 28.7387Z" fill="white"/>
<path d="M104.754 23.2105C103.768 26.1053 101.058 29 96.8696 29C92.4348 29 88 25.579 88 19C88 12.6842 91.6956 9 96.8696 9C102.29 9 105 13.4737 105 18.4737H92.9275C93.1739 22.6842 95.1449 25.8421 98.8406 25.8421C100.812 25.8421 102.536 25.0526 104.754 23.2105ZM92.9275 17.4211L100.319 16.6316C100.319 13.4737 99.3333 10.5789 96.8696 10.5789C93.913 10.3158 92.9275 13.7368 92.9275 17.4211Z" fill="white"/>
<path d="M125 28.7368L118.836 29V28.7368C118.836 27.9474 119.822 25.5789 119.822 22.9474V16.3684C119.822 13.4737 118.096 12.1579 116.37 12.1579C115.137 12.1579 113.658 12.6842 112.425 14V22.9474C112.425 25.3158 113.164 27.9474 113.164 28.7368V29H107V28.7368C107.247 27.9474 107.986 25.5789 107.986 22.9474V15.3158C107.986 12.9474 107.247 10.3158 107 9.52632V9.26316H112.425V12.6842C113.658 10.5789 115.63 9 118.342 9C121.548 9 124.26 11.1053 124.26 15.5789V22.9474C124.014 25.5789 124.753 28.2105 125 28.7368Z" fill="white"/>
<path d="M128 3.10714C128 1.29464 129.154 0 130.769 0C132.385 0 133.538 1.29464 133.538 3.10714C133.538 4.91964 132.154 6.21428 130.769 6.21428C129.385 6.21428 128 4.91964 128 3.10714ZM128 28.7411C128 27.9643 128.923 25.6339 128.923 23.0446V15.5357C128.923 13.2054 128.231 10.6161 128 9.83928V9.58036H133.077V23.0446C133.077 25.375 133.769 27.9643 134 28.7411V29L128 28.7411Z" fill="white"/>
<path d="M165 28.7368L158.973 29V28.7368C159.214 27.9474 159.937 25.5789 159.937 22.9474V16.3684C159.937 13.4737 158.25 12.4211 156.563 12.4211C155.598 12.4211 154.393 12.9474 153.429 13.7368C153.429 14.2632 153.67 15.0526 153.67 15.5789V22.9474C153.67 25.3158 154.393 27.9474 154.634 28.7368V29H148.607V28.7368C148.848 27.9474 149.571 25.5789 149.571 22.9474V16.3684C149.571 13.4737 147.884 12.4211 146.196 12.4211C145.232 12.4211 144.268 12.9474 143.304 13.7368V22.9474C143.304 25.3158 144.027 27.9474 144.027 28.7368V29H138V28.7368C138.241 27.9474 138.964 25.5789 138.964 22.9474V15.3158C138.964 12.9474 138.241 10.3158 138 9.52632V9.26316H143.304V12.4211C144.75 10.3158 146.438 9 148.607 9C150.777 9 152.946 10.0526 153.67 12.6842C155.116 10.3158 156.804 9 159.455 9C162.348 9 165 11.1053 165 15.5789V22.9474C164.036 25.5789 164.759 28.2105 165 28.7368Z" fill="white"/>
<path d="M167 18.8701C167 12.3766 171.25 9 176.5 9C181.5 9 186 12.3766 186 18.8701C186 25.3636 181.75 29 176.5 29C171.5 29 167 25.3636 167 18.8701ZM180.75 18.8701C180.75 14.4545 179.25 10.5584 176.5 10.5584C173.5 10.5584 172.25 14.7143 172.25 18.8701C172.25 23.2857 173.5 27.4416 176.5 27.4416C179.5 27.4416 180.75 23.2857 180.75 18.8701Z" fill="white"/>
<path d="M197.256 27.4312V21.7798H197.513C200.077 24.6055 203.667 28.4587 207.513 28.4587C210.333 28.4587 212.385 26.9174 212.385 24.0917C212.385 20.7523 209.308 19.211 204.949 17.9266C200.333 16.1284 197 13.5596 197 9.70642C197 5.59633 200.59 2 206.744 2C210.333 2 213.667 3.2844 215.974 4.31193V9.70642H215.718C213.154 7.13761 209.564 3.54129 205.974 3.54129C203.154 3.54129 201.359 5.33945 201.359 7.3945C201.359 10.2202 204.949 11.7615 209.308 13.3027C215.205 15.6147 217 18.6972 217 22.0367C217 27.4312 212.385 30 207 30C204.179 30 200.846 28.9725 197.256 27.4312Z" fill="white"/>
<path d="M237 19.6792C237 26.5566 233.055 29.6132 229.356 29.6132C227.63 29.6132 225.904 29.1038 224.425 27.3208V31.1415C224.425 33.434 225.164 35.9811 225.411 36.7453V37H219V36.7453C219.247 35.9811 219.986 33.6887 219.986 31.1415V16.3679C219.986 14.0755 219.247 11.5283 219 10.7641V10.5094H219.74L224.425 10.2547V12.8019C225.658 11.0189 227.63 10 229.849 10C233.795 10.2547 237 13.566 237 19.6792ZM232.068 19.934C232.068 16.3679 230.836 13.0566 227.877 13.0566C226.644 13.0566 225.658 13.8208 224.671 14.8396V26.3019C225.658 27.066 226.644 27.5755 227.63 27.5755C230.589 27.3208 232.068 24.0094 232.068 19.934Z" fill="white"/>
<path d="M239 29.7387C239.231 28.955 239.923 26.6036 239.923 23.991V7.53153C239.923 5.18018 239.231 2.56757 239 2.04504V1.78378L244.077 1V23.991C244.077 26.3423 244.769 28.955 245 29.7387V30L239 29.7387Z" fill="white"/>
<path d="M248 4.10714C248 2.29464 249.296 1 251.111 1C252.926 1 254.222 2.29464 254.222 4.10714C254.222 5.91964 252.667 7.21429 251.111 7.21429C249.556 7.21429 248 5.91964 248 4.10714ZM248.259 29.7411C248.259 28.9643 249.296 26.6339 249.296 24.0446V16.5357C249.296 14.2054 248.519 11.6161 248.259 10.8393V10.5804H253.963V24.0446C253.963 26.375 254.741 28.9643 255 29.7411V30L248.259 29.7411Z" fill="white"/>
<path d="M269 25.9184C268 28.2143 266.25 30 263.5 30C260.5 30 258.75 27.9592 258.75 24.3878V12.398H256V11.1224C259.5 9.84694 261.5 7.55102 263 5H263.25V10.8673H268.25V12.398H263.25V23.8775C263.25 25.9184 264.25 26.9388 265.75 26.9388C266.75 26.6837 267.75 26.4286 269 25.9184Z" fill="white"/>
<path d="M6.358 57.204C5.236 57.204 4.25567 56.949 3.417 56.439C2.57833 55.929 1.92667 55.2207 1.462 54.314C0.997333 53.396 0.765 52.3307 0.765 51.118C0.765 49.894 1.003 48.8173 1.479 47.888C1.96633 46.9473 2.652 46.2163 3.536 45.695C4.43133 45.1623 5.491 44.896 6.715 44.896C8.109 44.896 9.265 45.2303 10.183 45.899C11.101 46.5677 11.696 47.4913 11.968 48.67H9.537C9.35567 48.1147 9.027 47.684 8.551 47.378C8.075 47.0607 7.463 46.902 6.715 46.902C5.525 46.902 4.607 47.2817 3.961 48.041C3.315 48.789 2.992 49.8203 2.992 51.135C2.992 52.4497 3.30933 53.4697 3.944 54.195C4.59 54.909 5.46267 55.266 6.562 55.266C7.63867 55.266 8.449 54.977 8.993 54.399C9.54833 53.8097 9.88267 53.039 9.996 52.087H6.987V50.455H12.189V57H10.183L10.013 55.436C9.62767 56.0027 9.146 56.439 8.568 56.745C7.99 57.051 7.25333 57.204 6.358 57.204ZM14.2534 57V48.568H16.1914L16.3954 50.149C16.7014 49.605 17.1151 49.1743 17.6364 48.857C18.1691 48.5283 18.7924 48.364 19.5064 48.364V50.659H18.8944C18.4184 50.659 17.9934 50.7327 17.6194 50.88C17.2454 51.0273 16.9508 51.2823 16.7354 51.645C16.5314 52.0077 16.4294 52.512 16.4294 53.158V57H14.2534ZM23.9007 57.204C23.1753 57.204 22.5803 57.0907 22.1157 56.864C21.651 56.626 21.3053 56.3143 21.0787 55.929C20.852 55.5437 20.7387 55.1187 20.7387 54.654C20.7387 53.872 21.0447 53.2373 21.6567 52.75C22.2687 52.2627 23.1867 52.019 24.4107 52.019H26.5527V51.815C26.5527 51.237 26.3883 50.812 26.0597 50.54C25.731 50.268 25.323 50.132 24.8357 50.132C24.3937 50.132 24.0083 50.2397 23.6797 50.455C23.351 50.659 23.147 50.965 23.0677 51.373H20.9427C20.9993 50.761 21.2033 50.2283 21.5547 49.775C21.9173 49.3217 22.382 48.976 22.9487 48.738C23.5153 48.4887 24.15 48.364 24.8527 48.364C26.054 48.364 27.0003 48.6643 27.6917 49.265C28.383 49.8657 28.7287 50.7157 28.7287 51.815V57H26.8757L26.6717 55.64C26.4223 56.0933 26.071 56.4673 25.6177 56.762C25.1757 57.0567 24.6033 57.204 23.9007 57.204ZM24.3937 55.504C25.017 55.504 25.4987 55.3 25.8387 54.892C26.19 54.484 26.411 53.9797 26.5017 53.379H24.6487C24.0707 53.379 23.657 53.4867 23.4077 53.702C23.1583 53.906 23.0337 54.161 23.0337 54.467C23.0337 54.7957 23.1583 55.0507 23.4077 55.232C23.657 55.4133 23.9857 55.504 24.3937 55.504ZM34.6812 57.204C33.8879 57.204 33.1795 57.0113 32.5562 56.626C31.9329 56.2407 31.4399 55.7137 31.0772 55.045C30.7145 54.3763 30.5332 53.617 30.5332 52.767C30.5332 51.917 30.7145 51.1633 31.0772 50.506C31.4399 49.8373 31.9329 49.316 32.5562 48.942C33.1795 48.5567 33.8879 48.364 34.6812 48.364C35.3159 48.364 35.8712 48.483 36.3472 48.721C36.8232 48.959 37.2085 49.2933 37.5032 49.724V47.378H35.1062V46.052H37.5032V44.76H39.6792V46.052H40.8692V47.378H39.6792V57H37.7412L37.5032 55.793C37.2312 56.167 36.8685 56.4957 36.4152 56.779C35.9732 57.0623 35.3952 57.204 34.6812 57.204ZM35.1402 55.3C35.8429 55.3 36.4152 55.0677 36.8572 54.603C37.3105 54.127 37.5372 53.5207 37.5372 52.784C37.5372 52.0473 37.3105 51.4467 36.8572 50.982C36.4152 50.506 35.8429 50.268 35.1402 50.268C34.4489 50.268 33.8765 50.5003 33.4232 50.965C32.9699 51.4297 32.7432 52.0303 32.7432 52.767C32.7432 53.5037 32.9699 54.11 33.4232 54.586C33.8765 55.062 34.4489 55.3 35.1402 55.3ZM45.3167 57.204C44.5914 57.204 43.9964 57.0907 43.5317 56.864C43.067 56.626 42.7214 56.3143 42.4947 55.929C42.268 55.5437 42.1547 55.1187 42.1547 54.654C42.1547 53.872 42.4607 53.2373 43.0727 52.75C43.6847 52.2627 44.6027 52.019 45.8267 52.019H47.9687V51.815C47.9687 51.237 47.8044 50.812 47.4757 50.54C47.147 50.268 46.739 50.132 46.2517 50.132C45.8097 50.132 45.4244 50.2397 45.0957 50.455C44.767 50.659 44.563 50.965 44.4837 51.373H42.3587C42.4154 50.761 42.6194 50.2283 42.9707 49.775C43.3334 49.3217 43.798 48.976 44.3647 48.738C44.9314 48.4887 45.566 48.364 46.2687 48.364C47.47 48.364 48.4164 48.6643 49.1077 49.265C49.799 49.8657 50.1447 50.7157 50.1447 51.815V57H48.2917L48.0877 55.64C47.8384 56.0933 47.487 56.4673 47.0337 56.762C46.5917 57.0567 46.0194 57.204 45.3167 57.204ZM45.8097 55.504C46.433 55.504 46.9147 55.3 47.2547 54.892C47.606 54.484 47.827 53.9797 47.9177 53.379H46.0647C45.4867 53.379 45.073 53.4867 44.8237 53.702C44.5744 53.906 44.4497 54.161 44.4497 54.467C44.4497 54.7957 44.5744 55.0507 44.8237 55.232C45.073 55.4133 45.4017 55.504 45.8097 55.504ZM52.2212 57V48.568H54.1422L54.3122 49.996C54.5729 49.4973 54.9469 49.1007 55.4342 48.806C55.9329 48.5113 56.5165 48.364 57.1852 48.364C58.2279 48.364 59.0382 48.6927 59.6162 49.35C60.1942 50.0073 60.4832 50.9707 60.4832 52.24V57H58.3072V52.444C58.3072 51.7187 58.1599 51.1633 57.8652 50.778C57.5705 50.3927 57.1115 50.2 56.4882 50.2C55.8762 50.2 55.3719 50.4153 54.9752 50.846C54.5899 51.2767 54.3972 51.8773 54.3972 52.648V57H52.2212ZM63.737 47.259C63.3403 47.259 63.0117 47.14 62.751 46.902C62.5017 46.664 62.377 46.3637 62.377 46.001C62.377 45.6383 62.5017 45.3437 62.751 45.117C63.0117 44.879 63.3403 44.76 63.737 44.76C64.1337 44.76 64.4567 44.879 64.706 45.117C64.9667 45.3437 65.097 45.6383 65.097 46.001C65.097 46.3637 64.9667 46.664 64.706 46.902C64.4567 47.14 64.1337 47.259 63.737 47.259ZM62.649 57V48.568H64.825V57H62.649ZM76.145 57.204C75.5103 57.204 74.955 57.085 74.479 56.847C74.003 56.609 73.6177 56.2747 73.323 55.844L73.085 57H71.147V44.76H73.323V49.775C73.595 49.401 73.952 49.0723 74.394 48.789C74.8473 48.5057 75.431 48.364 76.145 48.364C76.9383 48.364 77.6467 48.5567 78.27 48.942C78.8933 49.3273 79.3863 49.8543 79.749 50.523C80.1117 51.1917 80.293 51.951 80.293 52.801C80.293 53.651 80.1117 54.4103 79.749 55.079C79.3863 55.7363 78.8933 56.2577 78.27 56.643C77.6467 57.017 76.9383 57.204 76.145 57.204ZM75.686 55.3C76.3773 55.3 76.9497 55.0677 77.403 54.603C77.8563 54.1383 78.083 53.5377 78.083 52.801C78.083 52.0643 77.8563 51.458 77.403 50.982C76.9497 50.506 76.3773 50.268 75.686 50.268C74.9833 50.268 74.4053 50.506 73.952 50.982C73.51 51.4467 73.289 52.0473 73.289 52.784C73.289 53.5207 73.51 54.127 73.952 54.603C74.4053 55.0677 74.9833 55.3 75.686 55.3ZM83.4098 47.259C83.0132 47.259 82.6845 47.14 82.4238 46.902C82.1745 46.664 82.0498 46.3637 82.0498 46.001C82.0498 45.6383 82.1745 45.3437 82.4238 45.117C82.6845 44.879 83.0132 44.76 83.4098 44.76C83.8065 44.76 84.1295 44.879 84.3788 45.117C84.6395 45.3437 84.7698 45.6383 84.7698 46.001C84.7698 46.3637 84.6395 46.664 84.3788 46.902C84.1295 47.14 83.8065 47.259 83.4098 47.259ZM82.3218 57V48.568H84.4978V57H82.3218ZM86.7691 57V48.568H88.7071L88.9111 50.149C89.2171 49.605 89.6307 49.1743 90.1521 48.857C90.6847 48.5283 91.3081 48.364 92.0221 48.364V50.659H91.4101C90.9341 50.659 90.5091 50.7327 90.1351 50.88C89.7611 51.0273 89.4664 51.2823 89.2511 51.645C89.0471 52.0077 88.9451 52.512 88.9451 53.158V57H86.7691ZM96.4163 57.204C95.691 57.204 95.096 57.0907 94.6313 56.864C94.1666 56.626 93.821 56.3143 93.5943 55.929C93.3676 55.5437 93.2543 55.1187 93.2543 54.654C93.2543 53.872 93.5603 53.2373 94.1723 52.75C94.7843 52.2627 95.7023 52.019 96.9263 52.019H99.0683V51.815C99.0683 51.237 98.904 50.812 98.5753 50.54C98.2466 50.268 97.8386 50.132 97.3513 50.132C96.9093 50.132 96.524 50.2397 96.1953 50.455C95.8666 50.659 95.6626 50.965 95.5833 51.373H93.4583C93.515 50.761 93.719 50.2283 94.0703 49.775C94.433 49.3217 94.8976 48.976 95.4643 48.738C96.031 48.4887 96.6656 48.364 97.3683 48.364C98.5696 48.364 99.516 48.6643 100.207 49.265C100.899 49.8657 101.244 50.7157 101.244 51.815V57H99.3913L99.1873 55.64C98.938 56.0933 98.5866 56.4673 98.1333 56.762C97.6913 57.0567 97.119 57.204 96.4163 57.204ZM96.9093 55.504C97.5326 55.504 98.0143 55.3 98.3543 54.892C98.7056 54.484 98.9266 53.9797 99.0173 53.379H97.1643C96.5863 53.379 96.1726 53.4867 95.9233 53.702C95.674 53.906 95.5493 54.161 95.5493 54.467C95.5493 54.7957 95.674 55.0507 95.9233 55.232C96.1726 55.4133 96.5013 55.504 96.9093 55.504ZM104.528 47.259C104.131 47.259 103.802 47.14 103.542 46.902C103.292 46.664 103.168 46.3637 103.168 46.001C103.168 45.6383 103.292 45.3437 103.542 45.117C103.802 44.879 104.131 44.76 104.528 44.76C104.924 44.76 105.247 44.879 105.497 45.117C105.757 45.3437 105.888 45.6383 105.888 46.001C105.888 46.3637 105.757 46.664 105.497 46.902C105.247 47.14 104.924 47.259 104.528 47.259ZM101.723 60.74V58.887H102.386C102.76 58.887 103.026 58.8133 103.185 58.666C103.343 58.5187 103.423 58.2693 103.423 57.918V48.568H105.599V57.918C105.599 58.938 105.338 59.6633 104.817 60.094C104.307 60.5247 103.61 60.74 102.726 60.74H101.723ZM111.032 57.204C109.978 57.204 109.162 56.8753 108.584 56.218C108.017 55.5607 107.734 54.5973 107.734 53.328V48.568H109.893V53.124C109.893 53.8493 110.04 54.4047 110.335 54.79C110.629 55.1753 111.094 55.368 111.729 55.368C112.329 55.368 112.822 55.1527 113.208 54.722C113.604 54.2913 113.803 53.6907 113.803 52.92V48.568H115.979V57H114.058L113.888 55.572C113.627 56.0707 113.247 56.4673 112.749 56.762C112.261 57.0567 111.689 57.204 111.032 57.204ZM121.719 57V55.249L126.02 50.37H121.77V48.568H128.502V50.319L124.133 55.198H128.587V57H121.719ZM134.495 57.204C133.645 57.204 132.891 57.0227 132.234 56.66C131.577 56.2973 131.061 55.7873 130.687 55.13C130.313 54.4727 130.126 53.7133 130.126 52.852C130.126 51.9793 130.307 51.203 130.67 50.523C131.044 49.843 131.554 49.316 132.2 48.942C132.857 48.5567 133.628 48.364 134.512 48.364C135.339 48.364 136.07 48.5453 136.705 48.908C137.34 49.2707 137.833 49.7693 138.184 50.404C138.547 51.0273 138.728 51.7243 138.728 52.495C138.728 52.6197 138.722 52.75 138.711 52.886C138.711 53.022 138.705 53.1637 138.694 53.311H132.285C132.33 53.9683 132.557 54.484 132.965 54.858C133.384 55.232 133.889 55.419 134.478 55.419C134.92 55.419 135.288 55.3227 135.583 55.13C135.889 54.926 136.116 54.6653 136.263 54.348H138.473C138.314 54.8807 138.048 55.368 137.674 55.81C137.311 56.2407 136.858 56.5807 136.314 56.83C135.781 57.0793 135.175 57.204 134.495 57.204ZM134.512 50.132C133.979 50.132 133.509 50.285 133.101 50.591C132.693 50.8857 132.432 51.339 132.319 51.951H136.518C136.484 51.3957 136.28 50.9537 135.906 50.625C135.532 50.2963 135.067 50.132 134.512 50.132ZM140.558 57V44.76H142.734V57H140.558ZM149.055 57.204C148.205 57.204 147.451 57.0227 146.794 56.66C146.136 56.2973 145.621 55.7873 145.247 55.13C144.873 54.4727 144.686 53.7133 144.686 52.852C144.686 51.9793 144.867 51.203 145.23 50.523C145.604 49.843 146.114 49.316 146.76 48.942C147.417 48.5567 148.188 48.364 149.072 48.364C149.899 48.364 150.63 48.5453 151.265 48.908C151.899 49.2707 152.392 49.7693 152.744 50.404C153.106 51.0273 153.288 51.7243 153.288 52.495C153.288 52.6197 153.282 52.75 153.271 52.886C153.271 53.022 153.265 53.1637 153.254 53.311H146.845C146.89 53.9683 147.117 54.484 147.525 54.858C147.944 55.232 148.448 55.419 149.038 55.419C149.48 55.419 149.848 55.3227 150.143 55.13C150.449 54.926 150.675 54.6653 150.823 54.348H153.033C152.874 54.8807 152.608 55.368 152.234 55.81C151.871 56.2407 151.418 56.5807 150.874 56.83C150.341 57.0793 149.735 57.204 149.055 57.204ZM149.072 50.132C148.539 50.132 148.069 50.285 147.661 50.591C147.253 50.8857 146.992 51.339 146.879 51.951H151.078C151.044 51.3957 150.84 50.9537 150.466 50.625C150.092 50.2963 149.627 50.132 149.072 50.132ZM155.118 57V48.568H157.039L157.209 49.996C157.469 49.4973 157.843 49.1007 158.331 48.806C158.829 48.5113 159.413 48.364 160.082 48.364C161.124 48.364 161.935 48.6927 162.513 49.35C163.091 50.0073 163.38 50.9707 163.38 52.24V57H161.204V52.444C161.204 51.7187 161.056 51.1633 160.762 50.778C160.467 50.3927 160.008 50.2 159.385 50.2C158.773 50.2 158.268 50.4153 157.872 50.846C157.486 51.2767 157.294 51.8773 157.294 52.648V57H155.118ZM169.557 57.204C168.707 57.204 167.954 57.0227 167.296 56.66C166.639 56.2973 166.123 55.7873 165.749 55.13C165.375 54.4727 165.188 53.7133 165.188 52.852C165.188 51.9793 165.37 51.203 165.732 50.523C166.106 49.843 166.616 49.316 167.262 48.942C167.92 48.5567 168.69 48.364 169.574 48.364C170.402 48.364 171.133 48.5453 171.767 48.908C172.402 49.2707 172.895 49.7693 173.246 50.404C173.609 51.0273 173.79 51.7243 173.79 52.495C173.79 52.6197 173.785 52.75 173.773 52.886C173.773 53.022 173.768 53.1637 173.756 53.311H167.347C167.393 53.9683 167.619 54.484 168.027 54.858C168.447 55.232 168.951 55.419 169.54 55.419C169.982 55.419 170.351 55.3227 170.645 55.13C170.951 54.926 171.178 54.6653 171.325 54.348H173.535C173.377 54.8807 173.11 55.368 172.736 55.81C172.374 56.2407 171.92 56.5807 171.376 56.83C170.844 57.0793 170.237 57.204 169.557 57.204ZM169.574 50.132C169.042 50.132 168.571 50.285 168.163 50.591C167.755 50.8857 167.495 51.339 167.381 51.951H171.58C171.546 51.3957 171.342 50.9537 170.968 50.625C170.594 50.2963 170.13 50.132 169.574 50.132ZM179.671 60.74V48.568H181.609L181.847 49.775C182.119 49.401 182.476 49.0723 182.918 48.789C183.372 48.5057 183.955 48.364 184.669 48.364C185.463 48.364 186.171 48.5567 186.794 48.942C187.418 49.3273 187.911 49.8543 188.273 50.523C188.636 51.1917 188.817 51.951 188.817 52.801C188.817 53.651 188.636 54.4103 188.273 55.079C187.911 55.7363 187.418 56.2577 186.794 56.643C186.171 57.017 185.463 57.204 184.669 57.204C184.035 57.204 183.479 57.085 183.003 56.847C182.527 56.609 182.142 56.2747 181.847 55.844V60.74H179.671ZM184.21 55.3C184.902 55.3 185.474 55.0677 185.927 54.603C186.381 54.1383 186.607 53.5377 186.607 52.801C186.607 52.0643 186.381 51.458 185.927 50.982C185.474 50.506 184.902 50.268 184.21 50.268C183.508 50.268 182.93 50.506 182.476 50.982C182.034 51.4467 181.813 52.0473 181.813 52.784C181.813 53.5207 182.034 54.127 182.476 54.603C182.93 55.0677 183.508 55.3 184.21 55.3ZM194.807 57.204C193.991 57.204 193.255 57.017 192.597 56.643C191.951 56.269 191.436 55.7533 191.05 55.096C190.676 54.4273 190.489 53.6567 190.489 52.784C190.489 51.9113 190.682 51.1463 191.067 50.489C191.453 49.8203 191.968 49.299 192.614 48.925C193.272 48.551 194.008 48.364 194.824 48.364C195.629 48.364 196.354 48.551 197 48.925C197.658 49.299 198.173 49.8203 198.547 50.489C198.933 51.1463 199.125 51.9113 199.125 52.784C199.125 53.6567 198.933 54.4273 198.547 55.096C198.173 55.7533 197.658 56.269 197 56.643C196.343 57.017 195.612 57.204 194.807 57.204ZM194.807 55.317C195.374 55.317 195.867 55.1073 196.286 54.688C196.706 54.2573 196.915 53.6227 196.915 52.784C196.915 51.9453 196.706 51.3163 196.286 50.897C195.867 50.4663 195.38 50.251 194.824 50.251C194.246 50.251 193.748 50.4663 193.328 50.897C192.92 51.3163 192.716 51.9453 192.716 52.784C192.716 53.6227 192.92 54.2573 193.328 54.688C193.748 55.1073 194.241 55.317 194.807 55.317ZM202.934 57L199.84 48.568H202.118L204.26 54.943L206.402 48.568H208.68L205.569 57H202.934ZM210.052 57V48.568H211.99L212.194 50.149C212.5 49.605 212.914 49.1743 213.435 48.857C213.968 48.5283 214.591 48.364 215.305 48.364V50.659H214.693C214.217 50.659 213.792 50.7327 213.418 50.88C213.044 51.0273 212.75 51.2823 212.534 51.645C212.33 52.0077 212.228 52.512 212.228 53.158V57H210.052ZM220.278 57.204C219.53 57.204 218.872 57.085 218.306 56.847C217.739 56.5977 217.286 56.2577 216.946 55.827C216.606 55.3963 216.402 54.8977 216.334 54.331H218.527C218.595 54.6597 218.776 54.943 219.071 55.181C219.377 55.4077 219.768 55.521 220.244 55.521C220.72 55.521 221.065 55.4247 221.281 55.232C221.507 55.0393 221.621 54.8183 221.621 54.569C221.621 54.2063 221.462 53.9627 221.145 53.838C220.827 53.702 220.385 53.5717 219.819 53.447C219.456 53.3677 219.088 53.2713 218.714 53.158C218.34 53.0447 217.994 52.903 217.677 52.733C217.371 52.5517 217.121 52.325 216.929 52.053C216.736 51.7697 216.64 51.424 216.64 51.016C216.64 50.268 216.934 49.639 217.524 49.129C218.124 48.619 218.963 48.364 220.04 48.364C221.037 48.364 221.83 48.5963 222.42 49.061C223.02 49.5257 223.377 50.166 223.491 50.982H221.434C221.309 50.3587 220.839 50.047 220.023 50.047C219.615 50.047 219.297 50.1263 219.071 50.285C218.855 50.4437 218.748 50.642 218.748 50.88C218.748 51.1293 218.912 51.3277 219.241 51.475C219.569 51.6223 220.006 51.7583 220.55 51.883C221.139 52.019 221.677 52.172 222.165 52.342C222.663 52.5007 223.06 52.7443 223.355 53.073C223.649 53.3903 223.797 53.8493 223.797 54.45C223.808 54.9713 223.672 55.4417 223.389 55.861C223.105 56.2803 222.697 56.609 222.165 56.847C221.632 57.085 221.003 57.204 220.278 57.204ZM220.125 47.786L217.643 46.426V44.862L220.125 46.307L222.607 44.862V46.426L220.125 47.786ZM226.897 47.259C226.5 47.259 226.172 47.14 225.911 46.902C225.662 46.664 225.537 46.3637 225.537 46.001C225.537 45.6383 225.662 45.3437 225.911 45.117C226.172 44.879 226.5 44.76 226.897 44.76C227.294 44.76 227.617 44.879 227.866 45.117C228.127 45.3437 228.257 45.6383 228.257 46.001C228.257 46.3637 228.127 46.664 227.866 46.902C227.617 47.14 227.294 47.259 226.897 47.259ZM225.809 57V48.568H227.985V57H225.809ZM230.256 57V48.568H232.177L232.347 49.996C232.608 49.4973 232.982 49.1007 233.469 48.806C233.968 48.5113 234.552 48.364 235.22 48.364C236.263 48.364 237.073 48.6927 237.651 49.35C238.229 50.0073 238.518 50.9707 238.518 52.24V57H236.342V52.444C236.342 51.7187 236.195 51.1633 235.9 50.778C235.606 50.3927 235.147 50.2 234.523 50.2C233.911 50.2 233.407 50.4153 233.01 50.846C232.625 51.2767 232.432 51.8773 232.432 52.648V57H230.256ZM244.696 57.204C243.846 57.204 243.092 57.0227 242.435 56.66C241.778 56.2973 241.262 55.7873 240.888 55.13C240.514 54.4727 240.327 53.7133 240.327 52.852C240.327 51.9793 240.508 51.203 240.871 50.523C241.245 49.843 241.755 49.316 242.401 48.942C243.058 48.5567 243.829 48.364 244.713 48.364C245.54 48.364 246.271 48.5453 246.906 48.908C247.541 49.2707 248.034 49.7693 248.385 50.404C248.748 51.0273 248.929 51.7243 248.929 52.495C248.929 52.6197 248.923 52.75 248.912 52.886C248.912 53.022 248.906 53.1637 248.895 53.311H242.486C242.531 53.9683 242.758 54.484 243.166 54.858C243.585 55.232 244.09 55.419 244.679 55.419C245.121 55.419 245.489 55.3227 245.784 55.13C246.09 54.926 246.317 54.6653 246.464 54.348H248.674C248.515 54.8807 248.249 55.368 247.875 55.81C247.512 56.2407 247.059 56.5807 246.515 56.83C245.982 57.0793 245.376 57.204 244.696 57.204ZM244.713 50.132C244.18 50.132 243.71 50.285 243.302 50.591C242.894 50.8857 242.633 51.339 242.52 51.951H246.719C246.685 51.3957 246.481 50.9537 246.107 50.625C245.733 50.2963 245.268 50.132 244.713 50.132Z" fill="#6AFCAD"/>
</svg>
