<svg width="18" height="19" viewBox="0 0 18 19" fill="none" xmlns="http://www.w3.org/2000/svg">
<g clip-path="url(#clip0_215_510)">
<path fill-rule="evenodd" clip-rule="evenodd" d="M0 9.76641C0 13.843 2.57853 17.302 6.15488 18.5223C6.60518 18.6072 6.76927 18.3223 6.76927 18.0776C6.76927 17.8583 6.76153 17.2782 6.75711 16.5084C4.25372 17.0658 3.72553 15.2711 3.72553 15.2711C3.31612 14.205 2.72605 13.9211 2.72605 13.9211C1.9089 13.3484 2.78793 13.3603 2.78793 13.3603C3.69127 13.4255 4.16643 14.3115 4.16643 14.3115C4.96977 15.7215 6.27312 15.3142 6.78584 15.0779C6.86761 14.4814 7.10022 14.0752 7.35713 13.8441C5.35873 13.6113 3.25756 12.8199 3.25756 9.28375C3.25756 8.27594 3.6084 7.45225 4.18411 6.807C4.09184 6.5736 3.78299 5.63548 4.27251 4.36538C4.27251 4.36538 5.02833 4.11668 6.74717 5.31087C7.46542 5.10636 8.23506 5.00382 9.00028 5.00043C9.76494 5.00382 10.5346 5.10636 11.2539 5.31087C12.9717 4.11668 13.7264 4.36538 13.7264 4.36538C14.217 5.63548 13.9082 6.5736 13.8159 6.807C14.3927 7.45225 14.7408 8.27594 14.7408 9.28375C14.7408 12.8284 12.6369 13.6084 10.6318 13.8373C10.955 14.1222 11.2423 14.6854 11.2423 15.5459C11.2423 16.7797 11.2318 17.7751 11.2318 18.0776C11.2318 18.3246 11.3937 18.6112 11.8506 18.5211C15.4237 17.2986 18 13.8424 18 9.76641C18 4.66959 13.97 0.538086 8.99917 0.538086C4.02996 0.538086 0 4.66959 0 9.76641Z" fill="#579BEA"/>
</g>
<defs>
<clipPath id="clip0_215_510">
<rect width="18" height="18" fill="white" transform="translate(0 0.538086)"/>
</clipPath>
</defs>
</svg>
