<svg width="20" height="19" viewBox="0 0 20 19" fill="none" xmlns="http://www.w3.org/2000/svg">
<path fill-rule="evenodd" clip-rule="evenodd" d="M7.49233 10.1431L0 0.833008H5.93445L10.5594 6.58726L15.5004 0.858916H18.7688L12.1397 8.55341L20 18.333H14.0833L9.07538 12.1101L3.72896 18.3158H0.44287L7.49233 10.1431ZM14.9457 16.608L3.63881 2.558H5.07138L16.364 16.608H14.9457Z" fill="#0B0B0B"/>
<path fill-rule="evenodd" clip-rule="evenodd" d="M7.49233 10.1431L0 0.833008H5.93445L10.5594 6.58726L15.5004 0.858916H18.7688L12.1397 8.55341L20 18.333H14.0833L9.07538 12.1101L3.72896 18.3158H0.44287L7.49233 10.1431ZM14.9457 16.608L3.63881 2.558H5.07138L16.364 16.608H14.9457Z" fill="white"/>
</svg>
