<svg width="23" height="24" viewBox="0 0 23 24" fill="none" xmlns="http://www.w3.org/2000/svg">
<g clip-path="url(#clip0_7_2049)">
<path d="M11.5 2.41667C6.20517 2.41667 1.91663 6.70521 1.91663 12C1.91554 14.0118 2.54799 15.9729 3.72425 17.605C4.90051 19.2371 6.56085 20.4574 8.46971 21.0927C8.94888 21.176 9.12809 20.8885 9.12809 20.6365C9.12809 20.4094 9.11563 19.6552 9.11563 18.8521C6.70829 19.2958 6.08538 18.2656 5.89371 17.726C5.78542 17.45 5.31871 16.6 4.91142 16.3719C4.576 16.1927 4.09684 15.749 4.89896 15.7375C5.65413 15.725 6.19271 16.4323 6.37288 16.7198C7.23538 18.1688 8.61346 17.7615 9.16354 17.5104C9.24788 16.8875 9.49896 16.4687 9.77496 16.2291C7.64267 15.9895 5.41454 15.1625 5.41454 11.4969C5.41454 10.4542 5.78542 9.59267 6.39684 8.92088C6.301 8.68129 5.96559 7.699 6.49267 6.38129C6.49267 6.38129 7.29479 6.13021 9.12809 7.36454C9.90823 7.14802 10.7143 7.03904 11.5239 7.04063C12.3385 7.04063 13.1531 7.14796 13.9198 7.36358C15.7521 6.11775 16.5552 6.38225 16.5552 6.38225C17.0823 7.69996 16.7468 8.68225 16.651 8.92183C17.2615 9.59267 17.6333 10.4427 17.6333 11.4969C17.6333 15.175 15.3937 15.9895 13.2614 16.2291C13.6083 16.5281 13.9083 17.1031 13.9083 18.002C13.9083 19.2833 13.8958 20.3135 13.8958 20.6375C13.8958 20.8885 14.076 21.1875 14.5551 21.0917C16.4574 20.4494 18.1105 19.2268 19.2815 17.5959C20.4526 15.9649 21.0828 14.0078 21.0833 12C21.0833 6.70521 16.7948 2.41667 11.5 2.41667Z" fill="#0B0B0B"/>
</g>
<defs>
<clipPath id="clip0_7_2049">
<rect width="23" height="23" fill="white" transform="translate(0 0.5)"/>
</clipPath>
</defs>
</svg>
